<mxfile host="Electron" agent="Mozilla/5.0 (Windows NT 10.0; Win64; x64) AppleWebKit/537.36 (KHTML, like Gecko) draw.io/26.0.7 Chrome/128.0.6613.186 Electron/32.2.5 Safari/537.36" version="26.0.7">
  <diagram name="Page-1" id="0LkG6ailr866QZEMzTPR">
    <mxGraphModel dx="503" dy="390" grid="1" gridSize="10" guides="1" tooltips="1" connect="1" arrows="1" fold="1" page="1" pageScale="1" pageWidth="850" pageHeight="1100" math="0" shadow="0">
      <root>
        <mxCell id="0" />
        <mxCell id="1" parent="0" />
        <mxCell id="N3uVrDPWJQUxGeQVg-p2-280" value="" style="whiteSpace=wrap;html=1;aspect=fixed;dashed=1;dashPattern=1 2;fillColor=#dae8fc;strokeColor=#6c8ebf;" vertex="1" parent="1">
          <mxGeometry x="320" y="750" width="10" height="10" as="geometry" />
        </mxCell>
        <mxCell id="N3uVrDPWJQUxGeQVg-p2-281" value="" style="whiteSpace=wrap;html=1;aspect=fixed;dashed=1;dashPattern=1 2;fillColor=#dae8fc;strokeColor=#6c8ebf;" vertex="1" parent="1">
          <mxGeometry x="330" y="750" width="10" height="10" as="geometry" />
        </mxCell>
        <mxCell id="N3uVrDPWJQUxGeQVg-p2-282" value="" style="whiteSpace=wrap;html=1;aspect=fixed;dashed=1;dashPattern=1 2;fillColor=#dae8fc;strokeColor=#6c8ebf;" vertex="1" parent="1">
          <mxGeometry x="340" y="750" width="10" height="10" as="geometry" />
        </mxCell>
        <mxCell id="N3uVrDPWJQUxGeQVg-p2-283" value="" style="whiteSpace=wrap;html=1;aspect=fixed;dashed=1;dashPattern=1 2;fillColor=#dae8fc;strokeColor=#6c8ebf;" vertex="1" parent="1">
          <mxGeometry x="350" y="750" width="10" height="10" as="geometry" />
        </mxCell>
        <mxCell id="N3uVrDPWJQUxGeQVg-p2-284" value="" style="whiteSpace=wrap;html=1;aspect=fixed;dashed=1;dashPattern=1 2;fillColor=#dae8fc;strokeColor=#6c8ebf;" vertex="1" parent="1">
          <mxGeometry x="360" y="750" width="10" height="10" as="geometry" />
        </mxCell>
        <mxCell id="N3uVrDPWJQUxGeQVg-p2-285" value="" style="whiteSpace=wrap;html=1;aspect=fixed;dashed=1;dashPattern=1 2;fillColor=#dae8fc;strokeColor=#6c8ebf;" vertex="1" parent="1">
          <mxGeometry x="370" y="750" width="10" height="10" as="geometry" />
        </mxCell>
        <mxCell id="N3uVrDPWJQUxGeQVg-p2-286" value="" style="whiteSpace=wrap;html=1;aspect=fixed;dashed=1;dashPattern=1 2;fillColor=#dae8fc;strokeColor=#6c8ebf;" vertex="1" parent="1">
          <mxGeometry x="380" y="750" width="10" height="10" as="geometry" />
        </mxCell>
        <mxCell id="N3uVrDPWJQUxGeQVg-p2-287" value="" style="whiteSpace=wrap;html=1;aspect=fixed;dashed=1;dashPattern=1 2;fillColor=#dae8fc;strokeColor=#6c8ebf;" vertex="1" parent="1">
          <mxGeometry x="390" y="750" width="10" height="10" as="geometry" />
        </mxCell>
        <mxCell id="N3uVrDPWJQUxGeQVg-p2-288" value="" style="whiteSpace=wrap;html=1;aspect=fixed;dashed=1;dashPattern=1 2;fillColor=#dae8fc;strokeColor=#6c8ebf;" vertex="1" parent="1">
          <mxGeometry x="400" y="750" width="10" height="10" as="geometry" />
        </mxCell>
        <mxCell id="N3uVrDPWJQUxGeQVg-p2-289" value="" style="whiteSpace=wrap;html=1;aspect=fixed;dashed=1;dashPattern=1 2;fillColor=#dae8fc;strokeColor=#6c8ebf;" vertex="1" parent="1">
          <mxGeometry x="410" y="750" width="10" height="10" as="geometry" />
        </mxCell>
        <mxCell id="N3uVrDPWJQUxGeQVg-p2-290" value="" style="whiteSpace=wrap;html=1;aspect=fixed;dashed=1;dashPattern=1 2;fillColor=#dae8fc;strokeColor=#6c8ebf;" vertex="1" parent="1">
          <mxGeometry x="420" y="750" width="10" height="10" as="geometry" />
        </mxCell>
        <mxCell id="N3uVrDPWJQUxGeQVg-p2-291" value="" style="whiteSpace=wrap;html=1;aspect=fixed;dashed=1;dashPattern=1 2;fillColor=#dae8fc;strokeColor=#6c8ebf;" vertex="1" parent="1">
          <mxGeometry x="430" y="750" width="10" height="10" as="geometry" />
        </mxCell>
        <mxCell id="N3uVrDPWJQUxGeQVg-p2-292" value="" style="whiteSpace=wrap;html=1;aspect=fixed;dashed=1;dashPattern=1 2;fillColor=#dae8fc;strokeColor=#6c8ebf;" vertex="1" parent="1">
          <mxGeometry x="310" y="750" width="10" height="10" as="geometry" />
        </mxCell>
        <mxCell id="N3uVrDPWJQUxGeQVg-p2-293" value="" style="whiteSpace=wrap;html=1;aspect=fixed;dashed=1;dashPattern=1 2;fillColor=#dae8fc;strokeColor=#6c8ebf;" vertex="1" parent="1">
          <mxGeometry x="310" y="750" width="10" height="10" as="geometry" />
        </mxCell>
        <mxCell id="N3uVrDPWJQUxGeQVg-p2-294" value="" style="whiteSpace=wrap;html=1;aspect=fixed;dashed=1;dashPattern=1 2;fillColor=#dae8fc;strokeColor=#6c8ebf;" vertex="1" parent="1">
          <mxGeometry x="300" y="750" width="10" height="10" as="geometry" />
        </mxCell>
        <mxCell id="N3uVrDPWJQUxGeQVg-p2-295" value="" style="whiteSpace=wrap;html=1;aspect=fixed;dashed=1;dashPattern=1 2;fillColor=#dae8fc;strokeColor=#6c8ebf;" vertex="1" parent="1">
          <mxGeometry x="290" y="750" width="10" height="10" as="geometry" />
        </mxCell>
        <mxCell id="N3uVrDPWJQUxGeQVg-p2-296" value="" style="whiteSpace=wrap;html=1;aspect=fixed;dashed=1;dashPattern=1 2;fillColor=#dae8fc;strokeColor=#6c8ebf;" vertex="1" parent="1">
          <mxGeometry x="280" y="750" width="10" height="10" as="geometry" />
        </mxCell>
        <mxCell id="N3uVrDPWJQUxGeQVg-p2-297" value="" style="whiteSpace=wrap;html=1;aspect=fixed;dashed=1;dashPattern=1 2;fillColor=#dae8fc;strokeColor=#6c8ebf;" vertex="1" parent="1">
          <mxGeometry x="440" y="750" width="10" height="10" as="geometry" />
        </mxCell>
        <mxCell id="N3uVrDPWJQUxGeQVg-p2-298" value="" style="whiteSpace=wrap;html=1;aspect=fixed;dashed=1;dashPattern=1 2;fillColor=#dae8fc;strokeColor=#6c8ebf;" vertex="1" parent="1">
          <mxGeometry x="450" y="750" width="10" height="10" as="geometry" />
        </mxCell>
        <mxCell id="N3uVrDPWJQUxGeQVg-p2-299" value="" style="whiteSpace=wrap;html=1;aspect=fixed;dashed=1;dashPattern=1 2;fillColor=#dae8fc;strokeColor=#6c8ebf;" vertex="1" parent="1">
          <mxGeometry x="460" y="750" width="10" height="10" as="geometry" />
        </mxCell>
        <mxCell id="N3uVrDPWJQUxGeQVg-p2-300" value="" style="whiteSpace=wrap;html=1;aspect=fixed;dashed=1;dashPattern=1 2;fillColor=#dae8fc;strokeColor=#6c8ebf;" vertex="1" parent="1">
          <mxGeometry x="470" y="750" width="10" height="10" as="geometry" />
        </mxCell>
        <mxCell id="N3uVrDPWJQUxGeQVg-p2-301" value="" style="whiteSpace=wrap;html=1;aspect=fixed;dashed=1;dashPattern=1 2;fillColor=#dae8fc;strokeColor=#6c8ebf;" vertex="1" parent="1">
          <mxGeometry x="320" y="740" width="10" height="10" as="geometry" />
        </mxCell>
        <mxCell id="N3uVrDPWJQUxGeQVg-p2-302" value="" style="whiteSpace=wrap;html=1;aspect=fixed;dashed=1;dashPattern=1 2;fillColor=#dae8fc;strokeColor=#6c8ebf;" vertex="1" parent="1">
          <mxGeometry x="330" y="740" width="10" height="10" as="geometry" />
        </mxCell>
        <mxCell id="N3uVrDPWJQUxGeQVg-p2-303" value="" style="whiteSpace=wrap;html=1;aspect=fixed;dashed=1;dashPattern=1 2;fillColor=#dae8fc;strokeColor=#6c8ebf;" vertex="1" parent="1">
          <mxGeometry x="340" y="740" width="10" height="10" as="geometry" />
        </mxCell>
        <mxCell id="N3uVrDPWJQUxGeQVg-p2-304" value="" style="whiteSpace=wrap;html=1;aspect=fixed;dashed=1;dashPattern=1 2;fillColor=#dae8fc;strokeColor=#6c8ebf;" vertex="1" parent="1">
          <mxGeometry x="350" y="740" width="10" height="10" as="geometry" />
        </mxCell>
        <mxCell id="N3uVrDPWJQUxGeQVg-p2-305" value="" style="whiteSpace=wrap;html=1;aspect=fixed;dashed=1;dashPattern=1 2;fillColor=#dae8fc;strokeColor=#6c8ebf;" vertex="1" parent="1">
          <mxGeometry x="360" y="740" width="10" height="10" as="geometry" />
        </mxCell>
        <mxCell id="N3uVrDPWJQUxGeQVg-p2-306" value="" style="whiteSpace=wrap;html=1;aspect=fixed;dashed=1;dashPattern=1 2;fillColor=#dae8fc;strokeColor=#6c8ebf;" vertex="1" parent="1">
          <mxGeometry x="370" y="740" width="10" height="10" as="geometry" />
        </mxCell>
        <mxCell id="N3uVrDPWJQUxGeQVg-p2-307" value="" style="whiteSpace=wrap;html=1;aspect=fixed;dashed=1;dashPattern=1 2;fillColor=#dae8fc;strokeColor=#6c8ebf;" vertex="1" parent="1">
          <mxGeometry x="380" y="740" width="10" height="10" as="geometry" />
        </mxCell>
        <mxCell id="N3uVrDPWJQUxGeQVg-p2-308" value="" style="whiteSpace=wrap;html=1;aspect=fixed;dashed=1;dashPattern=1 2;fillColor=#dae8fc;strokeColor=#6c8ebf;" vertex="1" parent="1">
          <mxGeometry x="390" y="740" width="10" height="10" as="geometry" />
        </mxCell>
        <mxCell id="N3uVrDPWJQUxGeQVg-p2-309" value="" style="whiteSpace=wrap;html=1;aspect=fixed;dashed=1;dashPattern=1 2;fillColor=#dae8fc;strokeColor=#6c8ebf;" vertex="1" parent="1">
          <mxGeometry x="400" y="740" width="10" height="10" as="geometry" />
        </mxCell>
        <mxCell id="N3uVrDPWJQUxGeQVg-p2-310" value="" style="whiteSpace=wrap;html=1;aspect=fixed;dashed=1;dashPattern=1 2;fillColor=#dae8fc;strokeColor=#6c8ebf;" vertex="1" parent="1">
          <mxGeometry x="410" y="740" width="10" height="10" as="geometry" />
        </mxCell>
        <mxCell id="N3uVrDPWJQUxGeQVg-p2-311" value="" style="whiteSpace=wrap;html=1;aspect=fixed;dashed=1;dashPattern=1 2;fillColor=#dae8fc;strokeColor=#6c8ebf;" vertex="1" parent="1">
          <mxGeometry x="420" y="740" width="10" height="10" as="geometry" />
        </mxCell>
        <mxCell id="N3uVrDPWJQUxGeQVg-p2-312" value="" style="whiteSpace=wrap;html=1;aspect=fixed;dashed=1;dashPattern=1 2;fillColor=#dae8fc;strokeColor=#6c8ebf;" vertex="1" parent="1">
          <mxGeometry x="430" y="740" width="10" height="10" as="geometry" />
        </mxCell>
        <mxCell id="N3uVrDPWJQUxGeQVg-p2-313" value="" style="whiteSpace=wrap;html=1;aspect=fixed;dashed=1;dashPattern=1 2;fillColor=#dae8fc;strokeColor=#6c8ebf;" vertex="1" parent="1">
          <mxGeometry x="310" y="740" width="10" height="10" as="geometry" />
        </mxCell>
        <mxCell id="N3uVrDPWJQUxGeQVg-p2-314" value="" style="whiteSpace=wrap;html=1;aspect=fixed;dashed=1;dashPattern=1 2;fillColor=#dae8fc;strokeColor=#6c8ebf;" vertex="1" parent="1">
          <mxGeometry x="310" y="740" width="10" height="10" as="geometry" />
        </mxCell>
        <mxCell id="N3uVrDPWJQUxGeQVg-p2-315" value="" style="whiteSpace=wrap;html=1;aspect=fixed;dashed=1;dashPattern=1 2;fillColor=#dae8fc;strokeColor=#6c8ebf;" vertex="1" parent="1">
          <mxGeometry x="300" y="740" width="10" height="10" as="geometry" />
        </mxCell>
        <mxCell id="N3uVrDPWJQUxGeQVg-p2-316" value="" style="whiteSpace=wrap;html=1;aspect=fixed;dashed=1;dashPattern=1 2;fillColor=#dae8fc;strokeColor=#6c8ebf;" vertex="1" parent="1">
          <mxGeometry x="290" y="740" width="10" height="10" as="geometry" />
        </mxCell>
        <mxCell id="N3uVrDPWJQUxGeQVg-p2-317" value="" style="whiteSpace=wrap;html=1;aspect=fixed;dashed=1;dashPattern=1 2;fillColor=#dae8fc;strokeColor=#6c8ebf;" vertex="1" parent="1">
          <mxGeometry x="280" y="740" width="10" height="10" as="geometry" />
        </mxCell>
        <mxCell id="N3uVrDPWJQUxGeQVg-p2-318" value="" style="whiteSpace=wrap;html=1;aspect=fixed;dashed=1;dashPattern=1 2;fillColor=#dae8fc;strokeColor=#6c8ebf;" vertex="1" parent="1">
          <mxGeometry x="440" y="740" width="10" height="10" as="geometry" />
        </mxCell>
        <mxCell id="N3uVrDPWJQUxGeQVg-p2-319" value="" style="whiteSpace=wrap;html=1;aspect=fixed;dashed=1;dashPattern=1 2;fillColor=#dae8fc;strokeColor=#6c8ebf;" vertex="1" parent="1">
          <mxGeometry x="450" y="740" width="10" height="10" as="geometry" />
        </mxCell>
        <mxCell id="N3uVrDPWJQUxGeQVg-p2-320" value="" style="whiteSpace=wrap;html=1;aspect=fixed;dashed=1;dashPattern=1 2;fillColor=#dae8fc;strokeColor=#6c8ebf;" vertex="1" parent="1">
          <mxGeometry x="460" y="740" width="10" height="10" as="geometry" />
        </mxCell>
        <mxCell id="N3uVrDPWJQUxGeQVg-p2-321" value="" style="whiteSpace=wrap;html=1;aspect=fixed;dashed=1;dashPattern=1 2;fillColor=#dae8fc;strokeColor=#6c8ebf;" vertex="1" parent="1">
          <mxGeometry x="470" y="740" width="10" height="10" as="geometry" />
        </mxCell>
        <mxCell id="N3uVrDPWJQUxGeQVg-p2-322" value="" style="whiteSpace=wrap;html=1;aspect=fixed;dashed=1;dashPattern=1 2;fillColor=#dae8fc;strokeColor=#6c8ebf;" vertex="1" parent="1">
          <mxGeometry x="320" y="730" width="10" height="10" as="geometry" />
        </mxCell>
        <mxCell id="N3uVrDPWJQUxGeQVg-p2-323" value="" style="whiteSpace=wrap;html=1;aspect=fixed;dashed=1;dashPattern=1 2;fillColor=#dae8fc;strokeColor=#6c8ebf;" vertex="1" parent="1">
          <mxGeometry x="330" y="730" width="10" height="10" as="geometry" />
        </mxCell>
        <mxCell id="N3uVrDPWJQUxGeQVg-p2-324" value="" style="whiteSpace=wrap;html=1;aspect=fixed;dashed=1;dashPattern=1 2;fillColor=#dae8fc;strokeColor=#6c8ebf;" vertex="1" parent="1">
          <mxGeometry x="340" y="730" width="10" height="10" as="geometry" />
        </mxCell>
        <mxCell id="N3uVrDPWJQUxGeQVg-p2-325" value="" style="whiteSpace=wrap;html=1;aspect=fixed;dashed=1;dashPattern=1 2;fillColor=#dae8fc;strokeColor=#6c8ebf;" vertex="1" parent="1">
          <mxGeometry x="350" y="730" width="10" height="10" as="geometry" />
        </mxCell>
        <mxCell id="N3uVrDPWJQUxGeQVg-p2-326" value="" style="whiteSpace=wrap;html=1;aspect=fixed;dashed=1;dashPattern=1 2;fillColor=#dae8fc;strokeColor=#6c8ebf;" vertex="1" parent="1">
          <mxGeometry x="360" y="730" width="10" height="10" as="geometry" />
        </mxCell>
        <mxCell id="N3uVrDPWJQUxGeQVg-p2-327" value="" style="whiteSpace=wrap;html=1;aspect=fixed;dashed=1;dashPattern=1 2;fillColor=#dae8fc;strokeColor=#6c8ebf;" vertex="1" parent="1">
          <mxGeometry x="370" y="730" width="10" height="10" as="geometry" />
        </mxCell>
        <mxCell id="N3uVrDPWJQUxGeQVg-p2-328" value="" style="whiteSpace=wrap;html=1;aspect=fixed;dashed=1;dashPattern=1 2;fillColor=#dae8fc;strokeColor=#6c8ebf;" vertex="1" parent="1">
          <mxGeometry x="380" y="730" width="10" height="10" as="geometry" />
        </mxCell>
        <mxCell id="N3uVrDPWJQUxGeQVg-p2-329" value="" style="whiteSpace=wrap;html=1;aspect=fixed;dashed=1;dashPattern=1 2;fillColor=#dae8fc;strokeColor=#6c8ebf;" vertex="1" parent="1">
          <mxGeometry x="390" y="730" width="10" height="10" as="geometry" />
        </mxCell>
        <mxCell id="N3uVrDPWJQUxGeQVg-p2-330" value="" style="whiteSpace=wrap;html=1;aspect=fixed;dashed=1;dashPattern=1 2;fillColor=#dae8fc;strokeColor=#6c8ebf;" vertex="1" parent="1">
          <mxGeometry x="400" y="730" width="10" height="10" as="geometry" />
        </mxCell>
        <mxCell id="N3uVrDPWJQUxGeQVg-p2-331" value="" style="whiteSpace=wrap;html=1;aspect=fixed;dashed=1;dashPattern=1 2;fillColor=#dae8fc;strokeColor=#6c8ebf;" vertex="1" parent="1">
          <mxGeometry x="410" y="730" width="10" height="10" as="geometry" />
        </mxCell>
        <mxCell id="N3uVrDPWJQUxGeQVg-p2-332" value="" style="whiteSpace=wrap;html=1;aspect=fixed;dashed=1;dashPattern=1 2;fillColor=#dae8fc;strokeColor=#6c8ebf;" vertex="1" parent="1">
          <mxGeometry x="420" y="730" width="10" height="10" as="geometry" />
        </mxCell>
        <mxCell id="N3uVrDPWJQUxGeQVg-p2-333" value="" style="whiteSpace=wrap;html=1;aspect=fixed;dashed=1;dashPattern=1 2;fillColor=#dae8fc;strokeColor=#6c8ebf;" vertex="1" parent="1">
          <mxGeometry x="430" y="730" width="10" height="10" as="geometry" />
        </mxCell>
        <mxCell id="N3uVrDPWJQUxGeQVg-p2-334" value="" style="whiteSpace=wrap;html=1;aspect=fixed;dashed=1;dashPattern=1 2;fillColor=#dae8fc;strokeColor=#6c8ebf;" vertex="1" parent="1">
          <mxGeometry x="310" y="730" width="10" height="10" as="geometry" />
        </mxCell>
        <mxCell id="N3uVrDPWJQUxGeQVg-p2-335" value="" style="whiteSpace=wrap;html=1;aspect=fixed;dashed=1;dashPattern=1 2;fillColor=#dae8fc;strokeColor=#6c8ebf;" vertex="1" parent="1">
          <mxGeometry x="310" y="730" width="10" height="10" as="geometry" />
        </mxCell>
        <mxCell id="N3uVrDPWJQUxGeQVg-p2-336" value="" style="whiteSpace=wrap;html=1;aspect=fixed;dashed=1;dashPattern=1 2;fillColor=#dae8fc;strokeColor=#6c8ebf;" vertex="1" parent="1">
          <mxGeometry x="300" y="730" width="10" height="10" as="geometry" />
        </mxCell>
        <mxCell id="N3uVrDPWJQUxGeQVg-p2-337" value="" style="whiteSpace=wrap;html=1;aspect=fixed;dashed=1;dashPattern=1 2;fillColor=#dae8fc;strokeColor=#6c8ebf;" vertex="1" parent="1">
          <mxGeometry x="290" y="730" width="10" height="10" as="geometry" />
        </mxCell>
        <mxCell id="N3uVrDPWJQUxGeQVg-p2-338" value="" style="whiteSpace=wrap;html=1;aspect=fixed;dashed=1;dashPattern=1 2;fillColor=#dae8fc;strokeColor=#6c8ebf;" vertex="1" parent="1">
          <mxGeometry x="280" y="730" width="10" height="10" as="geometry" />
        </mxCell>
        <mxCell id="N3uVrDPWJQUxGeQVg-p2-339" value="" style="whiteSpace=wrap;html=1;aspect=fixed;dashed=1;dashPattern=1 2;fillColor=#dae8fc;strokeColor=#6c8ebf;" vertex="1" parent="1">
          <mxGeometry x="440" y="730" width="10" height="10" as="geometry" />
        </mxCell>
        <mxCell id="N3uVrDPWJQUxGeQVg-p2-340" value="" style="whiteSpace=wrap;html=1;aspect=fixed;dashed=1;dashPattern=1 2;fillColor=#dae8fc;strokeColor=#6c8ebf;" vertex="1" parent="1">
          <mxGeometry x="450" y="730" width="10" height="10" as="geometry" />
        </mxCell>
        <mxCell id="N3uVrDPWJQUxGeQVg-p2-341" value="" style="whiteSpace=wrap;html=1;aspect=fixed;dashed=1;dashPattern=1 2;fillColor=#dae8fc;strokeColor=#6c8ebf;" vertex="1" parent="1">
          <mxGeometry x="460" y="730" width="10" height="10" as="geometry" />
        </mxCell>
        <mxCell id="N3uVrDPWJQUxGeQVg-p2-342" value="" style="whiteSpace=wrap;html=1;aspect=fixed;dashed=1;dashPattern=1 2;fillColor=#dae8fc;strokeColor=#6c8ebf;" vertex="1" parent="1">
          <mxGeometry x="470" y="730" width="10" height="10" as="geometry" />
        </mxCell>
        <mxCell id="N3uVrDPWJQUxGeQVg-p2-343" value="" style="whiteSpace=wrap;html=1;aspect=fixed;dashed=1;dashPattern=1 2;fillColor=#dae8fc;strokeColor=#6c8ebf;" vertex="1" parent="1">
          <mxGeometry x="320" y="720" width="10" height="10" as="geometry" />
        </mxCell>
        <mxCell id="N3uVrDPWJQUxGeQVg-p2-344" value="" style="whiteSpace=wrap;html=1;aspect=fixed;dashed=1;dashPattern=1 2;fillColor=#dae8fc;strokeColor=#6c8ebf;" vertex="1" parent="1">
          <mxGeometry x="330" y="720" width="10" height="10" as="geometry" />
        </mxCell>
        <mxCell id="N3uVrDPWJQUxGeQVg-p2-345" value="" style="whiteSpace=wrap;html=1;aspect=fixed;dashed=1;dashPattern=1 2;fillColor=#dae8fc;strokeColor=#6c8ebf;" vertex="1" parent="1">
          <mxGeometry x="340" y="720" width="10" height="10" as="geometry" />
        </mxCell>
        <mxCell id="N3uVrDPWJQUxGeQVg-p2-346" value="" style="whiteSpace=wrap;html=1;aspect=fixed;dashed=1;dashPattern=1 2;fillColor=#dae8fc;strokeColor=#6c8ebf;" vertex="1" parent="1">
          <mxGeometry x="350" y="720" width="10" height="10" as="geometry" />
        </mxCell>
        <mxCell id="N3uVrDPWJQUxGeQVg-p2-347" value="" style="whiteSpace=wrap;html=1;aspect=fixed;dashed=1;dashPattern=1 2;fillColor=#dae8fc;strokeColor=#6c8ebf;" vertex="1" parent="1">
          <mxGeometry x="360" y="720" width="10" height="10" as="geometry" />
        </mxCell>
        <mxCell id="N3uVrDPWJQUxGeQVg-p2-348" value="" style="whiteSpace=wrap;html=1;aspect=fixed;dashed=1;dashPattern=1 2;fillColor=#dae8fc;strokeColor=#6c8ebf;" vertex="1" parent="1">
          <mxGeometry x="370" y="720" width="10" height="10" as="geometry" />
        </mxCell>
        <mxCell id="N3uVrDPWJQUxGeQVg-p2-349" value="" style="whiteSpace=wrap;html=1;aspect=fixed;dashed=1;dashPattern=1 2;fillColor=#dae8fc;strokeColor=#6c8ebf;" vertex="1" parent="1">
          <mxGeometry x="380" y="720" width="10" height="10" as="geometry" />
        </mxCell>
        <mxCell id="N3uVrDPWJQUxGeQVg-p2-350" value="" style="whiteSpace=wrap;html=1;aspect=fixed;dashed=1;dashPattern=1 2;fillColor=#dae8fc;strokeColor=#6c8ebf;" vertex="1" parent="1">
          <mxGeometry x="390" y="720" width="10" height="10" as="geometry" />
        </mxCell>
        <mxCell id="N3uVrDPWJQUxGeQVg-p2-351" value="" style="whiteSpace=wrap;html=1;aspect=fixed;dashed=1;dashPattern=1 2;fillColor=#dae8fc;strokeColor=#6c8ebf;" vertex="1" parent="1">
          <mxGeometry x="400" y="720" width="10" height="10" as="geometry" />
        </mxCell>
        <mxCell id="N3uVrDPWJQUxGeQVg-p2-352" value="" style="whiteSpace=wrap;html=1;aspect=fixed;dashed=1;dashPattern=1 2;fillColor=#dae8fc;strokeColor=#6c8ebf;" vertex="1" parent="1">
          <mxGeometry x="410" y="720" width="10" height="10" as="geometry" />
        </mxCell>
        <mxCell id="N3uVrDPWJQUxGeQVg-p2-353" value="" style="whiteSpace=wrap;html=1;aspect=fixed;dashed=1;dashPattern=1 2;fillColor=#dae8fc;strokeColor=#6c8ebf;" vertex="1" parent="1">
          <mxGeometry x="420" y="720" width="10" height="10" as="geometry" />
        </mxCell>
        <mxCell id="N3uVrDPWJQUxGeQVg-p2-354" value="" style="whiteSpace=wrap;html=1;aspect=fixed;dashed=1;dashPattern=1 2;fillColor=#dae8fc;strokeColor=#6c8ebf;" vertex="1" parent="1">
          <mxGeometry x="430" y="720" width="10" height="10" as="geometry" />
        </mxCell>
        <mxCell id="N3uVrDPWJQUxGeQVg-p2-355" value="" style="whiteSpace=wrap;html=1;aspect=fixed;dashed=1;dashPattern=1 2;fillColor=#dae8fc;strokeColor=#6c8ebf;" vertex="1" parent="1">
          <mxGeometry x="310" y="720" width="10" height="10" as="geometry" />
        </mxCell>
        <mxCell id="N3uVrDPWJQUxGeQVg-p2-356" value="" style="whiteSpace=wrap;html=1;aspect=fixed;dashed=1;dashPattern=1 2;fillColor=#dae8fc;strokeColor=#6c8ebf;" vertex="1" parent="1">
          <mxGeometry x="310" y="720" width="10" height="10" as="geometry" />
        </mxCell>
        <mxCell id="N3uVrDPWJQUxGeQVg-p2-357" value="" style="whiteSpace=wrap;html=1;aspect=fixed;dashed=1;dashPattern=1 2;fillColor=#dae8fc;strokeColor=#6c8ebf;" vertex="1" parent="1">
          <mxGeometry x="300" y="720" width="10" height="10" as="geometry" />
        </mxCell>
        <mxCell id="N3uVrDPWJQUxGeQVg-p2-358" value="" style="whiteSpace=wrap;html=1;aspect=fixed;dashed=1;dashPattern=1 2;fillColor=#dae8fc;strokeColor=#6c8ebf;" vertex="1" parent="1">
          <mxGeometry x="290" y="720" width="10" height="10" as="geometry" />
        </mxCell>
        <mxCell id="N3uVrDPWJQUxGeQVg-p2-359" value="" style="whiteSpace=wrap;html=1;aspect=fixed;dashed=1;dashPattern=1 2;fillColor=#dae8fc;strokeColor=#6c8ebf;" vertex="1" parent="1">
          <mxGeometry x="280" y="720" width="10" height="10" as="geometry" />
        </mxCell>
        <mxCell id="N3uVrDPWJQUxGeQVg-p2-360" value="" style="whiteSpace=wrap;html=1;aspect=fixed;dashed=1;dashPattern=1 2;fillColor=#dae8fc;strokeColor=#6c8ebf;" vertex="1" parent="1">
          <mxGeometry x="440" y="720" width="10" height="10" as="geometry" />
        </mxCell>
        <mxCell id="N3uVrDPWJQUxGeQVg-p2-361" value="" style="whiteSpace=wrap;html=1;aspect=fixed;dashed=1;dashPattern=1 2;fillColor=#dae8fc;strokeColor=#6c8ebf;" vertex="1" parent="1">
          <mxGeometry x="450" y="720" width="10" height="10" as="geometry" />
        </mxCell>
        <mxCell id="N3uVrDPWJQUxGeQVg-p2-362" value="" style="whiteSpace=wrap;html=1;aspect=fixed;dashed=1;dashPattern=1 2;fillColor=#dae8fc;strokeColor=#6c8ebf;" vertex="1" parent="1">
          <mxGeometry x="460" y="720" width="10" height="10" as="geometry" />
        </mxCell>
        <mxCell id="N3uVrDPWJQUxGeQVg-p2-363" value="" style="whiteSpace=wrap;html=1;aspect=fixed;dashed=1;dashPattern=1 2;fillColor=#dae8fc;strokeColor=#6c8ebf;" vertex="1" parent="1">
          <mxGeometry x="470" y="720" width="10" height="10" as="geometry" />
        </mxCell>
        <mxCell id="N3uVrDPWJQUxGeQVg-p2-1" value="Window Title" style="strokeWidth=1;shadow=0;dashed=0;align=center;html=1;shape=mxgraph.mockup.containers.window;align=left;verticalAlign=top;spacingLeft=8;strokeColor2=#008cff;strokeColor3=#c4c4c4;fontColor=#666666;mainText=;fontSize=17;labelBackgroundColor=none;whiteSpace=wrap;" vertex="1" parent="1">
          <mxGeometry x="50" y="220" width="550" height="380" as="geometry" />
        </mxCell>
        <mxCell id="N3uVrDPWJQUxGeQVg-p2-2" value="" style="verticalLabelPosition=bottom;shadow=0;dashed=0;align=center;html=1;verticalAlign=top;strokeWidth=1;shape=mxgraph.mockup.containers.userFemale;strokeColor=#666666;strokeColor2=#008cff;" vertex="1" parent="1">
          <mxGeometry x="205" y="270" width="240" height="240" as="geometry" />
        </mxCell>
        <mxCell id="N3uVrDPWJQUxGeQVg-p2-3" value="" style="verticalLabelPosition=bottom;shadow=0;dashed=0;align=center;html=1;verticalAlign=top;strokeWidth=1;shape=mxgraph.mockup.forms.horSlider;strokeColor=#999999;sliderStyle=basic;sliderPos=48;handleStyle=circle;fillColor2=#ddeeff;" vertex="1" parent="1">
          <mxGeometry x="185" y="550" width="260" height="30" as="geometry" />
        </mxCell>
        <mxCell id="N3uVrDPWJQUxGeQVg-p2-4" value="Blur radius" style="text;html=1;align=center;verticalAlign=middle;whiteSpace=wrap;rounded=0;" vertex="1" parent="1">
          <mxGeometry x="110" y="550" width="60" height="30" as="geometry" />
        </mxCell>
        <mxCell id="N3uVrDPWJQUxGeQVg-p2-5" value="" style="whiteSpace=wrap;html=1;aspect=fixed;dashed=1;dashPattern=1 2;fillColor=#dae8fc;strokeColor=#6c8ebf;" vertex="1" parent="1">
          <mxGeometry x="320" y="760" width="10" height="10" as="geometry" />
        </mxCell>
        <mxCell id="N3uVrDPWJQUxGeQVg-p2-6" value="" style="whiteSpace=wrap;html=1;aspect=fixed;dashed=1;dashPattern=1 2;fillColor=#dae8fc;strokeColor=#6c8ebf;" vertex="1" parent="1">
          <mxGeometry x="330" y="760" width="10" height="10" as="geometry" />
        </mxCell>
        <mxCell id="N3uVrDPWJQUxGeQVg-p2-7" value="" style="whiteSpace=wrap;html=1;aspect=fixed;dashed=1;dashPattern=1 2;fillColor=#dae8fc;strokeColor=#6c8ebf;" vertex="1" parent="1">
          <mxGeometry x="340" y="760" width="10" height="10" as="geometry" />
        </mxCell>
        <mxCell id="N3uVrDPWJQUxGeQVg-p2-8" value="" style="whiteSpace=wrap;html=1;aspect=fixed;dashed=1;dashPattern=1 2;fillColor=#dae8fc;strokeColor=#6c8ebf;" vertex="1" parent="1">
          <mxGeometry x="350" y="760" width="10" height="10" as="geometry" />
        </mxCell>
        <mxCell id="N3uVrDPWJQUxGeQVg-p2-9" value="" style="whiteSpace=wrap;html=1;aspect=fixed;dashed=1;dashPattern=1 2;fillColor=#dae8fc;strokeColor=#6c8ebf;" vertex="1" parent="1">
          <mxGeometry x="360" y="760" width="10" height="10" as="geometry" />
        </mxCell>
        <mxCell id="N3uVrDPWJQUxGeQVg-p2-10" value="" style="whiteSpace=wrap;html=1;aspect=fixed;dashed=1;dashPattern=1 2;fillColor=#dae8fc;strokeColor=#6c8ebf;" vertex="1" parent="1">
          <mxGeometry x="370" y="760" width="10" height="10" as="geometry" />
        </mxCell>
        <mxCell id="N3uVrDPWJQUxGeQVg-p2-11" value="" style="whiteSpace=wrap;html=1;aspect=fixed;dashed=1;dashPattern=1 2;fillColor=#dae8fc;strokeColor=#6c8ebf;" vertex="1" parent="1">
          <mxGeometry x="380" y="760" width="10" height="10" as="geometry" />
        </mxCell>
        <mxCell id="N3uVrDPWJQUxGeQVg-p2-12" value="" style="whiteSpace=wrap;html=1;aspect=fixed;dashed=1;dashPattern=1 2;fillColor=#dae8fc;strokeColor=#6c8ebf;" vertex="1" parent="1">
          <mxGeometry x="390" y="760" width="10" height="10" as="geometry" />
        </mxCell>
        <mxCell id="N3uVrDPWJQUxGeQVg-p2-13" value="" style="whiteSpace=wrap;html=1;aspect=fixed;dashed=1;dashPattern=1 2;fillColor=#dae8fc;strokeColor=#6c8ebf;" vertex="1" parent="1">
          <mxGeometry x="400" y="760" width="10" height="10" as="geometry" />
        </mxCell>
        <mxCell id="N3uVrDPWJQUxGeQVg-p2-14" value="" style="whiteSpace=wrap;html=1;aspect=fixed;dashed=1;dashPattern=1 2;fillColor=#dae8fc;strokeColor=#6c8ebf;" vertex="1" parent="1">
          <mxGeometry x="410" y="760" width="10" height="10" as="geometry" />
        </mxCell>
        <mxCell id="N3uVrDPWJQUxGeQVg-p2-15" value="" style="whiteSpace=wrap;html=1;aspect=fixed;dashed=1;dashPattern=1 2;fillColor=#dae8fc;strokeColor=#6c8ebf;" vertex="1" parent="1">
          <mxGeometry x="420" y="760" width="10" height="10" as="geometry" />
        </mxCell>
        <mxCell id="N3uVrDPWJQUxGeQVg-p2-16" value="" style="whiteSpace=wrap;html=1;aspect=fixed;dashed=1;dashPattern=1 2;fillColor=#dae8fc;strokeColor=#6c8ebf;" vertex="1" parent="1">
          <mxGeometry x="430" y="760" width="10" height="10" as="geometry" />
        </mxCell>
        <mxCell id="N3uVrDPWJQUxGeQVg-p2-18" value="" style="whiteSpace=wrap;html=1;aspect=fixed;dashed=1;dashPattern=1 2;fillColor=#dae8fc;strokeColor=#6c8ebf;" vertex="1" parent="1">
          <mxGeometry x="320" y="770" width="10" height="10" as="geometry" />
        </mxCell>
        <mxCell id="N3uVrDPWJQUxGeQVg-p2-19" value="" style="whiteSpace=wrap;html=1;aspect=fixed;dashed=1;dashPattern=1 2;fillColor=#dae8fc;strokeColor=#6c8ebf;" vertex="1" parent="1">
          <mxGeometry x="330" y="770" width="10" height="10" as="geometry" />
        </mxCell>
        <mxCell id="N3uVrDPWJQUxGeQVg-p2-20" value="" style="whiteSpace=wrap;html=1;aspect=fixed;dashed=1;dashPattern=1 2;fillColor=#dae8fc;strokeColor=#6c8ebf;" vertex="1" parent="1">
          <mxGeometry x="340" y="770" width="10" height="10" as="geometry" />
        </mxCell>
        <mxCell id="N3uVrDPWJQUxGeQVg-p2-21" value="" style="whiteSpace=wrap;html=1;aspect=fixed;dashed=1;dashPattern=1 2;fillColor=#e51400;strokeColor=#B20000;fontColor=#ffffff;" vertex="1" parent="1">
          <mxGeometry x="350" y="770" width="10" height="10" as="geometry" />
        </mxCell>
        <mxCell id="N3uVrDPWJQUxGeQVg-p2-22" value="" style="whiteSpace=wrap;html=1;aspect=fixed;dashed=1;dashPattern=1 2;fillColor=#dae8fc;strokeColor=#6c8ebf;" vertex="1" parent="1">
          <mxGeometry x="360" y="770" width="10" height="10" as="geometry" />
        </mxCell>
        <mxCell id="N3uVrDPWJQUxGeQVg-p2-23" value="" style="whiteSpace=wrap;html=1;aspect=fixed;dashed=1;dashPattern=1 2;fillColor=#e51400;strokeColor=#B20000;fontColor=#ffffff;" vertex="1" parent="1">
          <mxGeometry x="370" y="770" width="10" height="10" as="geometry" />
        </mxCell>
        <mxCell id="N3uVrDPWJQUxGeQVg-p2-24" value="" style="whiteSpace=wrap;html=1;aspect=fixed;dashed=1;dashPattern=1 2;fillColor=#dae8fc;strokeColor=#6c8ebf;" vertex="1" parent="1">
          <mxGeometry x="380" y="770" width="10" height="10" as="geometry" />
        </mxCell>
        <mxCell id="N3uVrDPWJQUxGeQVg-p2-25" value="" style="whiteSpace=wrap;html=1;aspect=fixed;dashed=1;dashPattern=1 2;fillColor=#dae8fc;strokeColor=#6c8ebf;" vertex="1" parent="1">
          <mxGeometry x="390" y="770" width="10" height="10" as="geometry" />
        </mxCell>
        <mxCell id="N3uVrDPWJQUxGeQVg-p2-26" value="" style="whiteSpace=wrap;html=1;aspect=fixed;dashed=1;dashPattern=1 2;fillColor=#60a917;strokeColor=#2D7600;fontColor=#ffffff;" vertex="1" parent="1">
          <mxGeometry x="400" y="770" width="10" height="10" as="geometry" />
        </mxCell>
        <mxCell id="N3uVrDPWJQUxGeQVg-p2-27" value="" style="whiteSpace=wrap;html=1;aspect=fixed;dashed=1;dashPattern=1 2;fillColor=#60a917;strokeColor=#2D7600;fontColor=#ffffff;" vertex="1" parent="1">
          <mxGeometry x="410" y="770" width="10" height="10" as="geometry" />
        </mxCell>
        <mxCell id="N3uVrDPWJQUxGeQVg-p2-28" value="" style="whiteSpace=wrap;html=1;aspect=fixed;dashed=1;dashPattern=1 2;fillColor=#60a917;strokeColor=#2D7600;fontColor=#ffffff;" vertex="1" parent="1">
          <mxGeometry x="420" y="770" width="10" height="10" as="geometry" />
        </mxCell>
        <mxCell id="N3uVrDPWJQUxGeQVg-p2-29" value="" style="whiteSpace=wrap;html=1;aspect=fixed;dashed=1;dashPattern=1 2;fillColor=#dae8fc;strokeColor=#6c8ebf;" vertex="1" parent="1">
          <mxGeometry x="430" y="770" width="10" height="10" as="geometry" />
        </mxCell>
        <mxCell id="N3uVrDPWJQUxGeQVg-p2-30" value="" style="whiteSpace=wrap;html=1;aspect=fixed;dashed=1;dashPattern=1 2;fillColor=#dae8fc;strokeColor=#6c8ebf;" vertex="1" parent="1">
          <mxGeometry x="320" y="780" width="10" height="10" as="geometry" />
        </mxCell>
        <mxCell id="N3uVrDPWJQUxGeQVg-p2-31" value="" style="whiteSpace=wrap;html=1;aspect=fixed;dashed=1;dashPattern=1 2;fillColor=#dae8fc;strokeColor=#6c8ebf;" vertex="1" parent="1">
          <mxGeometry x="330" y="780" width="10" height="10" as="geometry" />
        </mxCell>
        <mxCell id="N3uVrDPWJQUxGeQVg-p2-32" value="" style="whiteSpace=wrap;html=1;aspect=fixed;dashed=1;dashPattern=1 2;fillColor=#e51400;strokeColor=#B20000;fontColor=#ffffff;" vertex="1" parent="1">
          <mxGeometry x="340" y="780" width="10" height="10" as="geometry" />
        </mxCell>
        <mxCell id="N3uVrDPWJQUxGeQVg-p2-33" value="" style="whiteSpace=wrap;html=1;aspect=fixed;dashed=1;dashPattern=1 2;fillColor=#e51400;strokeColor=#B20000;fontColor=#ffffff;" vertex="1" parent="1">
          <mxGeometry x="350" y="780" width="10" height="10" as="geometry" />
        </mxCell>
        <mxCell id="N3uVrDPWJQUxGeQVg-p2-34" value="" style="whiteSpace=wrap;html=1;aspect=fixed;dashed=1;dashPattern=1 2;fillColor=#e51400;strokeColor=#B20000;fontColor=#ffffff;" vertex="1" parent="1">
          <mxGeometry x="360" y="780" width="10" height="10" as="geometry" />
        </mxCell>
        <mxCell id="N3uVrDPWJQUxGeQVg-p2-35" value="" style="whiteSpace=wrap;html=1;aspect=fixed;dashed=1;dashPattern=1 2;fillColor=#e51400;strokeColor=#B20000;fontColor=#ffffff;" vertex="1" parent="1">
          <mxGeometry x="370" y="780" width="10" height="10" as="geometry" />
        </mxCell>
        <mxCell id="N3uVrDPWJQUxGeQVg-p2-36" value="" style="whiteSpace=wrap;html=1;aspect=fixed;dashed=1;dashPattern=1 2;fillColor=#e51400;strokeColor=#B20000;fontColor=#ffffff;" vertex="1" parent="1">
          <mxGeometry x="380" y="780" width="10" height="10" as="geometry" />
        </mxCell>
        <mxCell id="N3uVrDPWJQUxGeQVg-p2-37" value="" style="whiteSpace=wrap;html=1;aspect=fixed;dashed=1;dashPattern=1 2;fillColor=#dae8fc;strokeColor=#6c8ebf;" vertex="1" parent="1">
          <mxGeometry x="390" y="780" width="10" height="10" as="geometry" />
        </mxCell>
        <mxCell id="N3uVrDPWJQUxGeQVg-p2-38" value="" style="whiteSpace=wrap;html=1;aspect=fixed;dashed=1;dashPattern=1 2;fillColor=#60a917;strokeColor=#2D7600;fontColor=#ffffff;" vertex="1" parent="1">
          <mxGeometry x="400" y="780" width="10" height="10" as="geometry" />
        </mxCell>
        <mxCell id="N3uVrDPWJQUxGeQVg-p2-39" value="" style="whiteSpace=wrap;html=1;aspect=fixed;dashed=1;dashPattern=1 2;fillColor=#60a917;strokeColor=#2D7600;fontColor=#ffffff;" vertex="1" parent="1">
          <mxGeometry x="410" y="780" width="10" height="10" as="geometry" />
        </mxCell>
        <mxCell id="N3uVrDPWJQUxGeQVg-p2-40" value="" style="whiteSpace=wrap;html=1;aspect=fixed;dashed=1;dashPattern=1 2;fillColor=#60a917;strokeColor=#2D7600;fontColor=#ffffff;" vertex="1" parent="1">
          <mxGeometry x="420" y="780" width="10" height="10" as="geometry" />
        </mxCell>
        <mxCell id="N3uVrDPWJQUxGeQVg-p2-41" value="" style="whiteSpace=wrap;html=1;aspect=fixed;dashed=1;dashPattern=1 2;fillColor=#dae8fc;strokeColor=#6c8ebf;" vertex="1" parent="1">
          <mxGeometry x="430" y="780" width="10" height="10" as="geometry" />
        </mxCell>
        <mxCell id="N3uVrDPWJQUxGeQVg-p2-42" value="" style="whiteSpace=wrap;html=1;aspect=fixed;dashed=1;dashPattern=1 2;fillColor=#dae8fc;strokeColor=#6c8ebf;" vertex="1" parent="1">
          <mxGeometry x="320" y="790" width="10" height="10" as="geometry" />
        </mxCell>
        <mxCell id="N3uVrDPWJQUxGeQVg-p2-43" value="" style="whiteSpace=wrap;html=1;aspect=fixed;dashed=1;dashPattern=1 2;fillColor=#dae8fc;strokeColor=#6c8ebf;" vertex="1" parent="1">
          <mxGeometry x="330" y="790" width="10" height="10" as="geometry" />
        </mxCell>
        <mxCell id="N3uVrDPWJQUxGeQVg-p2-44" value="" style="whiteSpace=wrap;html=1;aspect=fixed;dashed=1;dashPattern=1 2;fillColor=#e51400;strokeColor=#B20000;fontColor=#ffffff;" vertex="1" parent="1">
          <mxGeometry x="340" y="790" width="10" height="10" as="geometry" />
        </mxCell>
        <mxCell id="N3uVrDPWJQUxGeQVg-p2-45" value="" style="whiteSpace=wrap;html=1;aspect=fixed;dashed=1;dashPattern=1 2;fillColor=#e51400;strokeColor=#B20000;fontColor=#ffffff;" vertex="1" parent="1">
          <mxGeometry x="350" y="790" width="10" height="10" as="geometry" />
        </mxCell>
        <mxCell id="N3uVrDPWJQUxGeQVg-p2-46" value="" style="whiteSpace=wrap;html=1;aspect=fixed;dashed=1;dashPattern=1 2;fillColor=#e51400;strokeColor=#B20000;fontColor=#ffffff;" vertex="1" parent="1">
          <mxGeometry x="360" y="790" width="10" height="10" as="geometry" />
        </mxCell>
        <mxCell id="N3uVrDPWJQUxGeQVg-p2-47" value="" style="whiteSpace=wrap;html=1;aspect=fixed;dashed=1;dashPattern=1 2;fillColor=#e51400;strokeColor=#B20000;fontColor=#ffffff;" vertex="1" parent="1">
          <mxGeometry x="370" y="790" width="10" height="10" as="geometry" />
        </mxCell>
        <mxCell id="N3uVrDPWJQUxGeQVg-p2-48" value="" style="whiteSpace=wrap;html=1;aspect=fixed;dashed=1;dashPattern=1 2;fillColor=#e51400;strokeColor=#B20000;fontColor=#ffffff;" vertex="1" parent="1">
          <mxGeometry x="380" y="790" width="10" height="10" as="geometry" />
        </mxCell>
        <mxCell id="N3uVrDPWJQUxGeQVg-p2-49" value="" style="whiteSpace=wrap;html=1;aspect=fixed;dashed=1;dashPattern=1 2;fillColor=#60a917;strokeColor=#2D7600;fontColor=#ffffff;" vertex="1" parent="1">
          <mxGeometry x="390" y="790" width="10" height="10" as="geometry" />
        </mxCell>
        <mxCell id="N3uVrDPWJQUxGeQVg-p2-50" value="" style="whiteSpace=wrap;html=1;aspect=fixed;dashed=1;dashPattern=1 2;fillColor=#60a917;strokeColor=#2D7600;fontColor=#ffffff;" vertex="1" parent="1">
          <mxGeometry x="400" y="790" width="10" height="10" as="geometry" />
        </mxCell>
        <mxCell id="N3uVrDPWJQUxGeQVg-p2-51" value="" style="whiteSpace=wrap;html=1;aspect=fixed;dashed=1;dashPattern=1 2;fillColor=#60a917;strokeColor=#2D7600;fontColor=#ffffff;" vertex="1" parent="1">
          <mxGeometry x="410" y="790" width="10" height="10" as="geometry" />
        </mxCell>
        <mxCell id="N3uVrDPWJQUxGeQVg-p2-52" value="" style="whiteSpace=wrap;html=1;aspect=fixed;dashed=1;dashPattern=1 2;fillColor=#60a917;strokeColor=#2D7600;fontColor=#ffffff;" vertex="1" parent="1">
          <mxGeometry x="420" y="790" width="10" height="10" as="geometry" />
        </mxCell>
        <mxCell id="N3uVrDPWJQUxGeQVg-p2-53" value="" style="whiteSpace=wrap;html=1;aspect=fixed;dashed=1;dashPattern=1 2;fillColor=#60a917;strokeColor=#2D7600;fontColor=#ffffff;" vertex="1" parent="1">
          <mxGeometry x="430" y="790" width="10" height="10" as="geometry" />
        </mxCell>
        <mxCell id="N3uVrDPWJQUxGeQVg-p2-54" value="" style="whiteSpace=wrap;html=1;aspect=fixed;dashed=1;dashPattern=1 2;fillColor=#dae8fc;strokeColor=#6c8ebf;" vertex="1" parent="1">
          <mxGeometry x="320" y="800" width="10" height="10" as="geometry" />
        </mxCell>
        <mxCell id="N3uVrDPWJQUxGeQVg-p2-55" value="" style="whiteSpace=wrap;html=1;aspect=fixed;dashed=1;dashPattern=1 2;fillColor=#dae8fc;strokeColor=#6c8ebf;" vertex="1" parent="1">
          <mxGeometry x="330" y="800" width="10" height="10" as="geometry" />
        </mxCell>
        <mxCell id="N3uVrDPWJQUxGeQVg-p2-56" value="" style="whiteSpace=wrap;html=1;aspect=fixed;dashed=1;dashPattern=1 2;fillColor=#dae8fc;strokeColor=#6c8ebf;" vertex="1" parent="1">
          <mxGeometry x="340" y="800" width="10" height="10" as="geometry" />
        </mxCell>
        <mxCell id="N3uVrDPWJQUxGeQVg-p2-57" value="" style="whiteSpace=wrap;html=1;aspect=fixed;dashed=1;dashPattern=1 2;fillColor=#e51400;strokeColor=#B20000;fontColor=#ffffff;" vertex="1" parent="1">
          <mxGeometry x="350" y="800" width="10" height="10" as="geometry" />
        </mxCell>
        <mxCell id="N3uVrDPWJQUxGeQVg-p2-58" value="" style="whiteSpace=wrap;html=1;aspect=fixed;dashed=1;dashPattern=1 2;fillColor=#e51400;strokeColor=#B20000;fontColor=#ffffff;" vertex="1" parent="1">
          <mxGeometry x="360" y="800" width="10" height="10" as="geometry" />
        </mxCell>
        <mxCell id="N3uVrDPWJQUxGeQVg-p2-59" value="" style="whiteSpace=wrap;html=1;aspect=fixed;dashed=1;dashPattern=1 2;fillColor=#e51400;strokeColor=#B20000;fontColor=#ffffff;" vertex="1" parent="1">
          <mxGeometry x="370" y="800" width="10" height="10" as="geometry" />
        </mxCell>
        <mxCell id="N3uVrDPWJQUxGeQVg-p2-60" value="" style="whiteSpace=wrap;html=1;aspect=fixed;dashed=1;dashPattern=1 2;fillColor=#dae8fc;strokeColor=#6c8ebf;" vertex="1" parent="1">
          <mxGeometry x="380" y="800" width="10" height="10" as="geometry" />
        </mxCell>
        <mxCell id="N3uVrDPWJQUxGeQVg-p2-61" value="" style="whiteSpace=wrap;html=1;aspect=fixed;dashed=1;dashPattern=1 2;fillColor=#60a917;strokeColor=#2D7600;fontColor=#ffffff;" vertex="1" parent="1">
          <mxGeometry x="390" y="800" width="10" height="10" as="geometry" />
        </mxCell>
        <mxCell id="N3uVrDPWJQUxGeQVg-p2-62" value="" style="whiteSpace=wrap;html=1;aspect=fixed;dashed=1;dashPattern=1 2;fillColor=#60a917;strokeColor=#2D7600;fontColor=#ffffff;" vertex="1" parent="1">
          <mxGeometry x="400" y="800" width="10" height="10" as="geometry" />
        </mxCell>
        <mxCell id="N3uVrDPWJQUxGeQVg-p2-63" value="" style="whiteSpace=wrap;html=1;aspect=fixed;dashed=1;dashPattern=1 2;fillColor=#60a917;strokeColor=#2D7600;fontColor=#ffffff;" vertex="1" parent="1">
          <mxGeometry x="410" y="800" width="10" height="10" as="geometry" />
        </mxCell>
        <mxCell id="N3uVrDPWJQUxGeQVg-p2-64" value="" style="whiteSpace=wrap;html=1;aspect=fixed;dashed=1;dashPattern=1 2;fillColor=#60a917;strokeColor=#2D7600;fontColor=#ffffff;" vertex="1" parent="1">
          <mxGeometry x="420" y="800" width="10" height="10" as="geometry" />
        </mxCell>
        <mxCell id="N3uVrDPWJQUxGeQVg-p2-65" value="" style="whiteSpace=wrap;html=1;aspect=fixed;dashed=1;dashPattern=1 2;fillColor=#60a917;strokeColor=#2D7600;fontColor=#ffffff;" vertex="1" parent="1">
          <mxGeometry x="430" y="800" width="10" height="10" as="geometry" />
        </mxCell>
        <mxCell id="N3uVrDPWJQUxGeQVg-p2-66" value="" style="whiteSpace=wrap;html=1;aspect=fixed;dashed=1;dashPattern=1 2;fillColor=#dae8fc;strokeColor=#6c8ebf;" vertex="1" parent="1">
          <mxGeometry x="320" y="810" width="10" height="10" as="geometry" />
        </mxCell>
        <mxCell id="N3uVrDPWJQUxGeQVg-p2-67" value="" style="whiteSpace=wrap;html=1;aspect=fixed;dashed=1;dashPattern=1 2;fillColor=#dae8fc;strokeColor=#6c8ebf;" vertex="1" parent="1">
          <mxGeometry x="330" y="810" width="10" height="10" as="geometry" />
        </mxCell>
        <mxCell id="N3uVrDPWJQUxGeQVg-p2-68" value="" style="whiteSpace=wrap;html=1;aspect=fixed;dashed=1;dashPattern=1 2;fillColor=#dae8fc;strokeColor=#6c8ebf;" vertex="1" parent="1">
          <mxGeometry x="340" y="810" width="10" height="10" as="geometry" />
        </mxCell>
        <mxCell id="N3uVrDPWJQUxGeQVg-p2-69" value="" style="whiteSpace=wrap;html=1;aspect=fixed;dashed=1;dashPattern=1 2;fillColor=#dae8fc;strokeColor=#6c8ebf;" vertex="1" parent="1">
          <mxGeometry x="350" y="810" width="10" height="10" as="geometry" />
        </mxCell>
        <mxCell id="N3uVrDPWJQUxGeQVg-p2-70" value="" style="whiteSpace=wrap;html=1;aspect=fixed;dashed=1;dashPattern=1 2;fillColor=#e51400;strokeColor=#B20000;fontColor=#ffffff;" vertex="1" parent="1">
          <mxGeometry x="360" y="810" width="10" height="10" as="geometry" />
        </mxCell>
        <mxCell id="N3uVrDPWJQUxGeQVg-p2-71" value="" style="whiteSpace=wrap;html=1;aspect=fixed;dashed=1;dashPattern=1 2;fillColor=#dae8fc;strokeColor=#6c8ebf;" vertex="1" parent="1">
          <mxGeometry x="370" y="810" width="10" height="10" as="geometry" />
        </mxCell>
        <mxCell id="N3uVrDPWJQUxGeQVg-p2-72" value="" style="whiteSpace=wrap;html=1;aspect=fixed;dashed=1;dashPattern=1 2;fillColor=#dae8fc;strokeColor=#6c8ebf;" vertex="1" parent="1">
          <mxGeometry x="380" y="810" width="10" height="10" as="geometry" />
        </mxCell>
        <mxCell id="N3uVrDPWJQUxGeQVg-p2-73" value="" style="whiteSpace=wrap;html=1;aspect=fixed;dashed=1;dashPattern=1 2;fillColor=#dae8fc;strokeColor=#6c8ebf;" vertex="1" parent="1">
          <mxGeometry x="390" y="810" width="10" height="10" as="geometry" />
        </mxCell>
        <mxCell id="N3uVrDPWJQUxGeQVg-p2-74" value="" style="whiteSpace=wrap;html=1;aspect=fixed;dashed=1;dashPattern=1 2;fillColor=#60a917;strokeColor=#2D7600;fontColor=#ffffff;" vertex="1" parent="1">
          <mxGeometry x="400" y="810" width="10" height="10" as="geometry" />
        </mxCell>
        <mxCell id="N3uVrDPWJQUxGeQVg-p2-75" value="" style="whiteSpace=wrap;html=1;aspect=fixed;dashed=1;dashPattern=1 2;fillColor=#6d8764;strokeColor=#3A5431;fontColor=#ffffff;" vertex="1" parent="1">
          <mxGeometry x="410" y="810" width="10" height="10" as="geometry" />
        </mxCell>
        <mxCell id="N3uVrDPWJQUxGeQVg-p2-76" value="" style="whiteSpace=wrap;html=1;aspect=fixed;dashed=1;dashPattern=1 2;fillColor=#60a917;strokeColor=#2D7600;fontColor=#ffffff;" vertex="1" parent="1">
          <mxGeometry x="420" y="810" width="10" height="10" as="geometry" />
        </mxCell>
        <mxCell id="N3uVrDPWJQUxGeQVg-p2-77" value="" style="whiteSpace=wrap;html=1;aspect=fixed;dashed=1;dashPattern=1 2;fillColor=#dae8fc;strokeColor=#6c8ebf;" vertex="1" parent="1">
          <mxGeometry x="430" y="810" width="10" height="10" as="geometry" />
        </mxCell>
        <mxCell id="N3uVrDPWJQUxGeQVg-p2-78" value="" style="whiteSpace=wrap;html=1;aspect=fixed;dashed=1;dashPattern=1 2;fillColor=#ffe6cc;strokeColor=#d79b00;" vertex="1" parent="1">
          <mxGeometry x="320" y="820" width="10" height="10" as="geometry" />
        </mxCell>
        <mxCell id="N3uVrDPWJQUxGeQVg-p2-79" value="" style="whiteSpace=wrap;html=1;aspect=fixed;dashed=1;dashPattern=1 2;fillColor=#ffe6cc;strokeColor=#d79b00;" vertex="1" parent="1">
          <mxGeometry x="330" y="820" width="10" height="10" as="geometry" />
        </mxCell>
        <mxCell id="N3uVrDPWJQUxGeQVg-p2-80" value="" style="whiteSpace=wrap;html=1;aspect=fixed;dashed=1;dashPattern=1 2;fillColor=#ffe6cc;strokeColor=#d79b00;" vertex="1" parent="1">
          <mxGeometry x="340" y="820" width="10" height="10" as="geometry" />
        </mxCell>
        <mxCell id="N3uVrDPWJQUxGeQVg-p2-81" value="" style="whiteSpace=wrap;html=1;aspect=fixed;dashed=1;dashPattern=1 2;fillColor=#ffe6cc;strokeColor=#d79b00;" vertex="1" parent="1">
          <mxGeometry x="350" y="820" width="10" height="10" as="geometry" />
        </mxCell>
        <mxCell id="N3uVrDPWJQUxGeQVg-p2-82" value="" style="whiteSpace=wrap;html=1;aspect=fixed;dashed=1;dashPattern=1 2;fillColor=#ffe6cc;strokeColor=#d79b00;" vertex="1" parent="1">
          <mxGeometry x="360" y="820" width="10" height="10" as="geometry" />
        </mxCell>
        <mxCell id="N3uVrDPWJQUxGeQVg-p2-83" value="" style="whiteSpace=wrap;html=1;aspect=fixed;dashed=1;dashPattern=1 2;fillColor=#ffe6cc;strokeColor=#d79b00;" vertex="1" parent="1">
          <mxGeometry x="370" y="820" width="10" height="10" as="geometry" />
        </mxCell>
        <mxCell id="N3uVrDPWJQUxGeQVg-p2-84" value="" style="whiteSpace=wrap;html=1;aspect=fixed;dashed=1;dashPattern=1 2;fillColor=#ffe6cc;strokeColor=#d79b00;" vertex="1" parent="1">
          <mxGeometry x="380" y="820" width="10" height="10" as="geometry" />
        </mxCell>
        <mxCell id="N3uVrDPWJQUxGeQVg-p2-85" value="" style="whiteSpace=wrap;html=1;aspect=fixed;dashed=1;dashPattern=1 2;fillColor=#ffe6cc;strokeColor=#d79b00;" vertex="1" parent="1">
          <mxGeometry x="390" y="820" width="10" height="10" as="geometry" />
        </mxCell>
        <mxCell id="N3uVrDPWJQUxGeQVg-p2-86" value="" style="whiteSpace=wrap;html=1;aspect=fixed;dashed=1;dashPattern=1 2;fillColor=#ffe6cc;strokeColor=#d79b00;" vertex="1" parent="1">
          <mxGeometry x="400" y="820" width="10" height="10" as="geometry" />
        </mxCell>
        <mxCell id="N3uVrDPWJQUxGeQVg-p2-87" value="" style="whiteSpace=wrap;html=1;aspect=fixed;dashed=1;dashPattern=1 2;fillColor=#6d8764;strokeColor=#3A5431;fontColor=#ffffff;" vertex="1" parent="1">
          <mxGeometry x="410" y="820" width="10" height="10" as="geometry" />
        </mxCell>
        <mxCell id="N3uVrDPWJQUxGeQVg-p2-88" value="" style="whiteSpace=wrap;html=1;aspect=fixed;dashed=1;dashPattern=1 2;fillColor=#ffe6cc;strokeColor=#d79b00;" vertex="1" parent="1">
          <mxGeometry x="420" y="820" width="10" height="10" as="geometry" />
        </mxCell>
        <mxCell id="N3uVrDPWJQUxGeQVg-p2-89" value="" style="whiteSpace=wrap;html=1;aspect=fixed;dashed=1;dashPattern=1 2;fillColor=#ffe6cc;strokeColor=#d79b00;" vertex="1" parent="1">
          <mxGeometry x="430" y="820" width="10" height="10" as="geometry" />
        </mxCell>
        <mxCell id="N3uVrDPWJQUxGeQVg-p2-90" value="" style="whiteSpace=wrap;html=1;aspect=fixed;dashed=1;dashPattern=1 2;fillColor=#ffe6cc;strokeColor=#d79b00;" vertex="1" parent="1">
          <mxGeometry x="320" y="830" width="10" height="10" as="geometry" />
        </mxCell>
        <mxCell id="N3uVrDPWJQUxGeQVg-p2-91" value="" style="whiteSpace=wrap;html=1;aspect=fixed;dashed=1;dashPattern=1 2;fillColor=#ffe6cc;strokeColor=#d79b00;" vertex="1" parent="1">
          <mxGeometry x="330" y="830" width="10" height="10" as="geometry" />
        </mxCell>
        <mxCell id="N3uVrDPWJQUxGeQVg-p2-92" value="" style="whiteSpace=wrap;html=1;aspect=fixed;dashed=1;dashPattern=1 2;fillColor=#ffe6cc;strokeColor=#d79b00;" vertex="1" parent="1">
          <mxGeometry x="340" y="830" width="10" height="10" as="geometry" />
        </mxCell>
        <mxCell id="N3uVrDPWJQUxGeQVg-p2-93" value="" style="whiteSpace=wrap;html=1;aspect=fixed;dashed=1;dashPattern=1 2;fillColor=#ffe6cc;strokeColor=#d79b00;" vertex="1" parent="1">
          <mxGeometry x="350" y="830" width="10" height="10" as="geometry" />
        </mxCell>
        <mxCell id="N3uVrDPWJQUxGeQVg-p2-94" value="" style="whiteSpace=wrap;html=1;aspect=fixed;dashed=1;dashPattern=1 2;fillColor=#ffe6cc;strokeColor=#d79b00;" vertex="1" parent="1">
          <mxGeometry x="360" y="830" width="10" height="10" as="geometry" />
        </mxCell>
        <mxCell id="N3uVrDPWJQUxGeQVg-p2-95" value="" style="whiteSpace=wrap;html=1;aspect=fixed;dashed=1;dashPattern=1 2;fillColor=#ffe6cc;strokeColor=#d79b00;" vertex="1" parent="1">
          <mxGeometry x="370" y="830" width="10" height="10" as="geometry" />
        </mxCell>
        <mxCell id="N3uVrDPWJQUxGeQVg-p2-96" value="" style="whiteSpace=wrap;html=1;aspect=fixed;dashed=1;dashPattern=1 2;fillColor=#ffe6cc;strokeColor=#d79b00;" vertex="1" parent="1">
          <mxGeometry x="380" y="830" width="10" height="10" as="geometry" />
        </mxCell>
        <mxCell id="N3uVrDPWJQUxGeQVg-p2-97" value="" style="whiteSpace=wrap;html=1;aspect=fixed;dashed=1;dashPattern=1 2;fillColor=#ffe6cc;strokeColor=#d79b00;" vertex="1" parent="1">
          <mxGeometry x="390" y="830" width="10" height="10" as="geometry" />
        </mxCell>
        <mxCell id="N3uVrDPWJQUxGeQVg-p2-98" value="" style="whiteSpace=wrap;html=1;aspect=fixed;dashed=1;dashPattern=1 2;fillColor=#ffe6cc;strokeColor=#d79b00;" vertex="1" parent="1">
          <mxGeometry x="400" y="830" width="10" height="10" as="geometry" />
        </mxCell>
        <mxCell id="N3uVrDPWJQUxGeQVg-p2-99" value="" style="whiteSpace=wrap;html=1;aspect=fixed;dashed=1;dashPattern=1 2;fillColor=#6d8764;strokeColor=#3A5431;fontColor=#ffffff;" vertex="1" parent="1">
          <mxGeometry x="410" y="830" width="10" height="10" as="geometry" />
        </mxCell>
        <mxCell id="N3uVrDPWJQUxGeQVg-p2-100" value="" style="whiteSpace=wrap;html=1;aspect=fixed;dashed=1;dashPattern=1 2;fillColor=#ffe6cc;strokeColor=#d79b00;" vertex="1" parent="1">
          <mxGeometry x="420" y="830" width="10" height="10" as="geometry" />
        </mxCell>
        <mxCell id="N3uVrDPWJQUxGeQVg-p2-101" value="" style="whiteSpace=wrap;html=1;aspect=fixed;dashed=1;dashPattern=1 2;fillColor=#ffe6cc;strokeColor=#d79b00;" vertex="1" parent="1">
          <mxGeometry x="430" y="830" width="10" height="10" as="geometry" />
        </mxCell>
        <mxCell id="N3uVrDPWJQUxGeQVg-p2-115" value="" style="whiteSpace=wrap;html=1;aspect=fixed;dashed=1;dashPattern=1 2;fillColor=#dae8fc;strokeColor=#6c8ebf;" vertex="1" parent="1">
          <mxGeometry x="310" y="760" width="10" height="10" as="geometry" />
        </mxCell>
        <mxCell id="N3uVrDPWJQUxGeQVg-p2-116" value="" style="whiteSpace=wrap;html=1;aspect=fixed;dashed=1;dashPattern=1 2;fillColor=#dae8fc;strokeColor=#6c8ebf;" vertex="1" parent="1">
          <mxGeometry x="310" y="770" width="10" height="10" as="geometry" />
        </mxCell>
        <mxCell id="N3uVrDPWJQUxGeQVg-p2-117" value="" style="whiteSpace=wrap;html=1;aspect=fixed;dashed=1;dashPattern=1 2;fillColor=#dae8fc;strokeColor=#6c8ebf;" vertex="1" parent="1">
          <mxGeometry x="310" y="780" width="10" height="10" as="geometry" />
        </mxCell>
        <mxCell id="N3uVrDPWJQUxGeQVg-p2-118" value="" style="whiteSpace=wrap;html=1;aspect=fixed;dashed=1;dashPattern=1 2;fillColor=#dae8fc;strokeColor=#6c8ebf;" vertex="1" parent="1">
          <mxGeometry x="310" y="790" width="10" height="10" as="geometry" />
        </mxCell>
        <mxCell id="N3uVrDPWJQUxGeQVg-p2-119" value="" style="whiteSpace=wrap;html=1;aspect=fixed;dashed=1;dashPattern=1 2;fillColor=#dae8fc;strokeColor=#6c8ebf;" vertex="1" parent="1">
          <mxGeometry x="310" y="800" width="10" height="10" as="geometry" />
        </mxCell>
        <mxCell id="N3uVrDPWJQUxGeQVg-p2-120" value="" style="whiteSpace=wrap;html=1;aspect=fixed;dashed=1;dashPattern=1 2;fillColor=#dae8fc;strokeColor=#6c8ebf;" vertex="1" parent="1">
          <mxGeometry x="310" y="810" width="10" height="10" as="geometry" />
        </mxCell>
        <mxCell id="N3uVrDPWJQUxGeQVg-p2-121" value="" style="whiteSpace=wrap;html=1;aspect=fixed;dashed=1;dashPattern=1 2;fillColor=#ffe6cc;strokeColor=#d79b00;" vertex="1" parent="1">
          <mxGeometry x="310" y="820" width="10" height="10" as="geometry" />
        </mxCell>
        <mxCell id="N3uVrDPWJQUxGeQVg-p2-122" value="" style="whiteSpace=wrap;html=1;aspect=fixed;dashed=1;dashPattern=1 2;fillColor=#ffe6cc;strokeColor=#d79b00;" vertex="1" parent="1">
          <mxGeometry x="310" y="830" width="10" height="10" as="geometry" />
        </mxCell>
        <mxCell id="N3uVrDPWJQUxGeQVg-p2-123" value="" style="whiteSpace=wrap;html=1;aspect=fixed;dashed=1;dashPattern=1 2;fillColor=#dae8fc;strokeColor=#6c8ebf;" vertex="1" parent="1">
          <mxGeometry x="310" y="760" width="10" height="10" as="geometry" />
        </mxCell>
        <mxCell id="N3uVrDPWJQUxGeQVg-p2-124" value="" style="whiteSpace=wrap;html=1;aspect=fixed;dashed=1;dashPattern=1 2;fillColor=#dae8fc;strokeColor=#6c8ebf;" vertex="1" parent="1">
          <mxGeometry x="310" y="770" width="10" height="10" as="geometry" />
        </mxCell>
        <mxCell id="N3uVrDPWJQUxGeQVg-p2-125" value="" style="whiteSpace=wrap;html=1;aspect=fixed;dashed=1;dashPattern=1 2;fillColor=#dae8fc;strokeColor=#6c8ebf;" vertex="1" parent="1">
          <mxGeometry x="310" y="780" width="10" height="10" as="geometry" />
        </mxCell>
        <mxCell id="N3uVrDPWJQUxGeQVg-p2-126" value="" style="whiteSpace=wrap;html=1;aspect=fixed;dashed=1;dashPattern=1 2;fillColor=#dae8fc;strokeColor=#6c8ebf;" vertex="1" parent="1">
          <mxGeometry x="310" y="790" width="10" height="10" as="geometry" />
        </mxCell>
        <mxCell id="N3uVrDPWJQUxGeQVg-p2-127" value="" style="whiteSpace=wrap;html=1;aspect=fixed;dashed=1;dashPattern=1 2;fillColor=#dae8fc;strokeColor=#6c8ebf;" vertex="1" parent="1">
          <mxGeometry x="310" y="800" width="10" height="10" as="geometry" />
        </mxCell>
        <mxCell id="N3uVrDPWJQUxGeQVg-p2-128" value="" style="whiteSpace=wrap;html=1;aspect=fixed;dashed=1;dashPattern=1 2;fillColor=#dae8fc;strokeColor=#6c8ebf;" vertex="1" parent="1">
          <mxGeometry x="310" y="810" width="10" height="10" as="geometry" />
        </mxCell>
        <mxCell id="N3uVrDPWJQUxGeQVg-p2-129" value="" style="whiteSpace=wrap;html=1;aspect=fixed;dashed=1;dashPattern=1 2;fillColor=#ffe6cc;strokeColor=#d79b00;" vertex="1" parent="1">
          <mxGeometry x="310" y="820" width="10" height="10" as="geometry" />
        </mxCell>
        <mxCell id="N3uVrDPWJQUxGeQVg-p2-130" value="" style="whiteSpace=wrap;html=1;aspect=fixed;dashed=1;dashPattern=1 2;fillColor=#ffe6cc;strokeColor=#d79b00;" vertex="1" parent="1">
          <mxGeometry x="310" y="830" width="10" height="10" as="geometry" />
        </mxCell>
        <mxCell id="N3uVrDPWJQUxGeQVg-p2-131" value="" style="whiteSpace=wrap;html=1;aspect=fixed;dashed=1;dashPattern=1 2;fillColor=#dae8fc;strokeColor=#6c8ebf;" vertex="1" parent="1">
          <mxGeometry x="300" y="760" width="10" height="10" as="geometry" />
        </mxCell>
        <mxCell id="N3uVrDPWJQUxGeQVg-p2-132" value="" style="whiteSpace=wrap;html=1;aspect=fixed;dashed=1;dashPattern=1 2;fillColor=#dae8fc;strokeColor=#6c8ebf;" vertex="1" parent="1">
          <mxGeometry x="300" y="770" width="10" height="10" as="geometry" />
        </mxCell>
        <mxCell id="N3uVrDPWJQUxGeQVg-p2-133" value="" style="whiteSpace=wrap;html=1;aspect=fixed;dashed=1;dashPattern=1 2;fillColor=#dae8fc;strokeColor=#6c8ebf;" vertex="1" parent="1">
          <mxGeometry x="300" y="780" width="10" height="10" as="geometry" />
        </mxCell>
        <mxCell id="N3uVrDPWJQUxGeQVg-p2-134" value="" style="whiteSpace=wrap;html=1;aspect=fixed;dashed=1;dashPattern=1 2;fillColor=#dae8fc;strokeColor=#6c8ebf;" vertex="1" parent="1">
          <mxGeometry x="300" y="790" width="10" height="10" as="geometry" />
        </mxCell>
        <mxCell id="N3uVrDPWJQUxGeQVg-p2-135" value="" style="whiteSpace=wrap;html=1;aspect=fixed;dashed=1;dashPattern=1 2;fillColor=#dae8fc;strokeColor=#6c8ebf;" vertex="1" parent="1">
          <mxGeometry x="300" y="800" width="10" height="10" as="geometry" />
        </mxCell>
        <mxCell id="N3uVrDPWJQUxGeQVg-p2-136" value="" style="whiteSpace=wrap;html=1;aspect=fixed;dashed=1;dashPattern=1 2;fillColor=#dae8fc;strokeColor=#6c8ebf;" vertex="1" parent="1">
          <mxGeometry x="300" y="810" width="10" height="10" as="geometry" />
        </mxCell>
        <mxCell id="N3uVrDPWJQUxGeQVg-p2-137" value="" style="whiteSpace=wrap;html=1;aspect=fixed;dashed=1;dashPattern=1 2;fillColor=#ffe6cc;strokeColor=#d79b00;" vertex="1" parent="1">
          <mxGeometry x="300" y="820" width="10" height="10" as="geometry" />
        </mxCell>
        <mxCell id="N3uVrDPWJQUxGeQVg-p2-138" value="" style="whiteSpace=wrap;html=1;aspect=fixed;dashed=1;dashPattern=1 2;fillColor=#ffe6cc;strokeColor=#d79b00;" vertex="1" parent="1">
          <mxGeometry x="300" y="830" width="10" height="10" as="geometry" />
        </mxCell>
        <mxCell id="N3uVrDPWJQUxGeQVg-p2-139" value="" style="whiteSpace=wrap;html=1;aspect=fixed;dashed=1;dashPattern=1 2;fillColor=#dae8fc;strokeColor=#6c8ebf;" vertex="1" parent="1">
          <mxGeometry x="290" y="760" width="10" height="10" as="geometry" />
        </mxCell>
        <mxCell id="N3uVrDPWJQUxGeQVg-p2-140" value="" style="whiteSpace=wrap;html=1;aspect=fixed;dashed=1;dashPattern=1 2;fillColor=#dae8fc;strokeColor=#6c8ebf;" vertex="1" parent="1">
          <mxGeometry x="290" y="770" width="10" height="10" as="geometry" />
        </mxCell>
        <mxCell id="N3uVrDPWJQUxGeQVg-p2-141" value="" style="whiteSpace=wrap;html=1;aspect=fixed;dashed=1;dashPattern=1 2;fillColor=#dae8fc;strokeColor=#6c8ebf;" vertex="1" parent="1">
          <mxGeometry x="290" y="780" width="10" height="10" as="geometry" />
        </mxCell>
        <mxCell id="N3uVrDPWJQUxGeQVg-p2-142" value="" style="whiteSpace=wrap;html=1;aspect=fixed;dashed=1;dashPattern=1 2;fillColor=#dae8fc;strokeColor=#6c8ebf;" vertex="1" parent="1">
          <mxGeometry x="290" y="790" width="10" height="10" as="geometry" />
        </mxCell>
        <mxCell id="N3uVrDPWJQUxGeQVg-p2-143" value="" style="whiteSpace=wrap;html=1;aspect=fixed;dashed=1;dashPattern=1 2;fillColor=#dae8fc;strokeColor=#6c8ebf;" vertex="1" parent="1">
          <mxGeometry x="290" y="800" width="10" height="10" as="geometry" />
        </mxCell>
        <mxCell id="N3uVrDPWJQUxGeQVg-p2-144" value="" style="whiteSpace=wrap;html=1;aspect=fixed;dashed=1;dashPattern=1 2;fillColor=#dae8fc;strokeColor=#6c8ebf;" vertex="1" parent="1">
          <mxGeometry x="290" y="810" width="10" height="10" as="geometry" />
        </mxCell>
        <mxCell id="N3uVrDPWJQUxGeQVg-p2-145" value="" style="whiteSpace=wrap;html=1;aspect=fixed;dashed=1;dashPattern=1 2;fillColor=#ffe6cc;strokeColor=#d79b00;" vertex="1" parent="1">
          <mxGeometry x="290" y="820" width="10" height="10" as="geometry" />
        </mxCell>
        <mxCell id="N3uVrDPWJQUxGeQVg-p2-146" value="" style="whiteSpace=wrap;html=1;aspect=fixed;dashed=1;dashPattern=1 2;fillColor=#ffe6cc;strokeColor=#d79b00;" vertex="1" parent="1">
          <mxGeometry x="290" y="830" width="10" height="10" as="geometry" />
        </mxCell>
        <mxCell id="N3uVrDPWJQUxGeQVg-p2-147" value="" style="whiteSpace=wrap;html=1;aspect=fixed;dashed=1;dashPattern=1 2;fillColor=#dae8fc;strokeColor=#6c8ebf;" vertex="1" parent="1">
          <mxGeometry x="280" y="760" width="10" height="10" as="geometry" />
        </mxCell>
        <mxCell id="N3uVrDPWJQUxGeQVg-p2-148" value="" style="whiteSpace=wrap;html=1;aspect=fixed;dashed=1;dashPattern=1 2;fillColor=#dae8fc;strokeColor=#6c8ebf;" vertex="1" parent="1">
          <mxGeometry x="280" y="770" width="10" height="10" as="geometry" />
        </mxCell>
        <mxCell id="N3uVrDPWJQUxGeQVg-p2-149" value="" style="whiteSpace=wrap;html=1;aspect=fixed;dashed=1;dashPattern=1 2;fillColor=#dae8fc;strokeColor=#6c8ebf;" vertex="1" parent="1">
          <mxGeometry x="280" y="780" width="10" height="10" as="geometry" />
        </mxCell>
        <mxCell id="N3uVrDPWJQUxGeQVg-p2-150" value="" style="whiteSpace=wrap;html=1;aspect=fixed;dashed=1;dashPattern=1 2;fillColor=#dae8fc;strokeColor=#6c8ebf;" vertex="1" parent="1">
          <mxGeometry x="280" y="790" width="10" height="10" as="geometry" />
        </mxCell>
        <mxCell id="N3uVrDPWJQUxGeQVg-p2-151" value="" style="whiteSpace=wrap;html=1;aspect=fixed;dashed=1;dashPattern=1 2;fillColor=#dae8fc;strokeColor=#6c8ebf;" vertex="1" parent="1">
          <mxGeometry x="280" y="800" width="10" height="10" as="geometry" />
        </mxCell>
        <mxCell id="N3uVrDPWJQUxGeQVg-p2-152" value="" style="whiteSpace=wrap;html=1;aspect=fixed;dashed=1;dashPattern=1 2;fillColor=#dae8fc;strokeColor=#6c8ebf;" vertex="1" parent="1">
          <mxGeometry x="280" y="810" width="10" height="10" as="geometry" />
        </mxCell>
        <mxCell id="N3uVrDPWJQUxGeQVg-p2-153" value="" style="whiteSpace=wrap;html=1;aspect=fixed;dashed=1;dashPattern=1 2;fillColor=#ffe6cc;strokeColor=#d79b00;" vertex="1" parent="1">
          <mxGeometry x="280" y="820" width="10" height="10" as="geometry" />
        </mxCell>
        <mxCell id="N3uVrDPWJQUxGeQVg-p2-154" value="" style="whiteSpace=wrap;html=1;aspect=fixed;dashed=1;dashPattern=1 2;fillColor=#ffe6cc;strokeColor=#d79b00;" vertex="1" parent="1">
          <mxGeometry x="280" y="830" width="10" height="10" as="geometry" />
        </mxCell>
        <mxCell id="N3uVrDPWJQUxGeQVg-p2-164" value="" style="whiteSpace=wrap;html=1;aspect=fixed;dashed=1;dashPattern=1 2;fillColor=#dae8fc;strokeColor=#6c8ebf;" vertex="1" parent="1">
          <mxGeometry x="440" y="760" width="10" height="10" as="geometry" />
        </mxCell>
        <mxCell id="N3uVrDPWJQUxGeQVg-p2-165" value="" style="whiteSpace=wrap;html=1;aspect=fixed;dashed=1;dashPattern=1 2;fillColor=#dae8fc;strokeColor=#6c8ebf;" vertex="1" parent="1">
          <mxGeometry x="440" y="770" width="10" height="10" as="geometry" />
        </mxCell>
        <mxCell id="N3uVrDPWJQUxGeQVg-p2-166" value="" style="whiteSpace=wrap;html=1;aspect=fixed;dashed=1;dashPattern=1 2;fillColor=#dae8fc;strokeColor=#6c8ebf;" vertex="1" parent="1">
          <mxGeometry x="440" y="780" width="10" height="10" as="geometry" />
        </mxCell>
        <mxCell id="N3uVrDPWJQUxGeQVg-p2-167" value="" style="whiteSpace=wrap;html=1;aspect=fixed;dashed=1;dashPattern=1 2;fillColor=#60a917;strokeColor=#2D7600;fontColor=#ffffff;" vertex="1" parent="1">
          <mxGeometry x="440" y="790" width="10" height="10" as="geometry" />
        </mxCell>
        <mxCell id="N3uVrDPWJQUxGeQVg-p2-168" value="" style="whiteSpace=wrap;html=1;aspect=fixed;dashed=1;dashPattern=1 2;fillColor=#60a917;strokeColor=#2D7600;fontColor=#ffffff;" vertex="1" parent="1">
          <mxGeometry x="440" y="800" width="10" height="10" as="geometry" />
        </mxCell>
        <mxCell id="N3uVrDPWJQUxGeQVg-p2-169" value="" style="whiteSpace=wrap;html=1;aspect=fixed;dashed=1;dashPattern=1 2;fillColor=#dae8fc;strokeColor=#6c8ebf;" vertex="1" parent="1">
          <mxGeometry x="440" y="810" width="10" height="10" as="geometry" />
        </mxCell>
        <mxCell id="N3uVrDPWJQUxGeQVg-p2-170" value="" style="whiteSpace=wrap;html=1;aspect=fixed;dashed=1;dashPattern=1 2;fillColor=#ffe6cc;strokeColor=#d79b00;" vertex="1" parent="1">
          <mxGeometry x="440" y="820" width="10" height="10" as="geometry" />
        </mxCell>
        <mxCell id="N3uVrDPWJQUxGeQVg-p2-171" value="" style="whiteSpace=wrap;html=1;aspect=fixed;dashed=1;dashPattern=1 2;fillColor=#ffe6cc;strokeColor=#d79b00;" vertex="1" parent="1">
          <mxGeometry x="440" y="830" width="10" height="10" as="geometry" />
        </mxCell>
        <mxCell id="N3uVrDPWJQUxGeQVg-p2-172" value="" style="whiteSpace=wrap;html=1;aspect=fixed;dashed=1;dashPattern=1 2;fillColor=#dae8fc;strokeColor=#6c8ebf;" vertex="1" parent="1">
          <mxGeometry x="450" y="760" width="10" height="10" as="geometry" />
        </mxCell>
        <mxCell id="N3uVrDPWJQUxGeQVg-p2-173" value="" style="whiteSpace=wrap;html=1;aspect=fixed;dashed=1;dashPattern=1 2;fillColor=#dae8fc;strokeColor=#6c8ebf;" vertex="1" parent="1">
          <mxGeometry x="450" y="770" width="10" height="10" as="geometry" />
        </mxCell>
        <mxCell id="N3uVrDPWJQUxGeQVg-p2-174" value="" style="whiteSpace=wrap;html=1;aspect=fixed;dashed=1;dashPattern=1 2;fillColor=#dae8fc;strokeColor=#6c8ebf;" vertex="1" parent="1">
          <mxGeometry x="450" y="780" width="10" height="10" as="geometry" />
        </mxCell>
        <mxCell id="N3uVrDPWJQUxGeQVg-p2-175" value="" style="whiteSpace=wrap;html=1;aspect=fixed;dashed=1;dashPattern=1 2;fillColor=#60a917;strokeColor=#2D7600;fontColor=#ffffff;" vertex="1" parent="1">
          <mxGeometry x="450" y="790" width="10" height="10" as="geometry" />
        </mxCell>
        <mxCell id="N3uVrDPWJQUxGeQVg-p2-176" value="" style="whiteSpace=wrap;html=1;aspect=fixed;dashed=1;dashPattern=1 2;fillColor=#60a917;strokeColor=#2D7600;fontColor=#ffffff;" vertex="1" parent="1">
          <mxGeometry x="450" y="800" width="10" height="10" as="geometry" />
        </mxCell>
        <mxCell id="N3uVrDPWJQUxGeQVg-p2-177" value="" style="whiteSpace=wrap;html=1;aspect=fixed;dashed=1;dashPattern=1 2;fillColor=#dae8fc;strokeColor=#6c8ebf;" vertex="1" parent="1">
          <mxGeometry x="450" y="810" width="10" height="10" as="geometry" />
        </mxCell>
        <mxCell id="N3uVrDPWJQUxGeQVg-p2-178" value="" style="whiteSpace=wrap;html=1;aspect=fixed;dashed=1;dashPattern=1 2;fillColor=#ffe6cc;strokeColor=#d79b00;" vertex="1" parent="1">
          <mxGeometry x="450" y="820" width="10" height="10" as="geometry" />
        </mxCell>
        <mxCell id="N3uVrDPWJQUxGeQVg-p2-179" value="" style="whiteSpace=wrap;html=1;aspect=fixed;dashed=1;dashPattern=1 2;fillColor=#ffe6cc;strokeColor=#d79b00;" vertex="1" parent="1">
          <mxGeometry x="450" y="830" width="10" height="10" as="geometry" />
        </mxCell>
        <mxCell id="N3uVrDPWJQUxGeQVg-p2-180" value="" style="whiteSpace=wrap;html=1;aspect=fixed;dashed=1;dashPattern=1 2;fillColor=#dae8fc;strokeColor=#6c8ebf;" vertex="1" parent="1">
          <mxGeometry x="460" y="760" width="10" height="10" as="geometry" />
        </mxCell>
        <mxCell id="N3uVrDPWJQUxGeQVg-p2-181" value="" style="whiteSpace=wrap;html=1;aspect=fixed;dashed=1;dashPattern=1 2;fillColor=#dae8fc;strokeColor=#6c8ebf;" vertex="1" parent="1">
          <mxGeometry x="460" y="770" width="10" height="10" as="geometry" />
        </mxCell>
        <mxCell id="N3uVrDPWJQUxGeQVg-p2-182" value="" style="whiteSpace=wrap;html=1;aspect=fixed;dashed=1;dashPattern=1 2;fillColor=#dae8fc;strokeColor=#6c8ebf;" vertex="1" parent="1">
          <mxGeometry x="460" y="780" width="10" height="10" as="geometry" />
        </mxCell>
        <mxCell id="N3uVrDPWJQUxGeQVg-p2-183" value="" style="whiteSpace=wrap;html=1;aspect=fixed;dashed=1;dashPattern=1 2;fillColor=#60a917;strokeColor=#2D7600;fontColor=#ffffff;" vertex="1" parent="1">
          <mxGeometry x="460" y="790" width="10" height="10" as="geometry" />
        </mxCell>
        <mxCell id="N3uVrDPWJQUxGeQVg-p2-184" value="" style="whiteSpace=wrap;html=1;aspect=fixed;dashed=1;dashPattern=1 2;fillColor=#60a917;strokeColor=#2D7600;fontColor=#ffffff;" vertex="1" parent="1">
          <mxGeometry x="460" y="800" width="10" height="10" as="geometry" />
        </mxCell>
        <mxCell id="N3uVrDPWJQUxGeQVg-p2-185" value="" style="whiteSpace=wrap;html=1;aspect=fixed;dashed=1;dashPattern=1 2;fillColor=#dae8fc;strokeColor=#6c8ebf;" vertex="1" parent="1">
          <mxGeometry x="460" y="810" width="10" height="10" as="geometry" />
        </mxCell>
        <mxCell id="N3uVrDPWJQUxGeQVg-p2-186" value="" style="whiteSpace=wrap;html=1;aspect=fixed;dashed=1;dashPattern=1 2;fillColor=#ffe6cc;strokeColor=#d79b00;" vertex="1" parent="1">
          <mxGeometry x="460" y="820" width="10" height="10" as="geometry" />
        </mxCell>
        <mxCell id="N3uVrDPWJQUxGeQVg-p2-187" value="" style="whiteSpace=wrap;html=1;aspect=fixed;dashed=1;dashPattern=1 2;fillColor=#ffe6cc;strokeColor=#d79b00;" vertex="1" parent="1">
          <mxGeometry x="460" y="830" width="10" height="10" as="geometry" />
        </mxCell>
        <mxCell id="N3uVrDPWJQUxGeQVg-p2-188" value="" style="whiteSpace=wrap;html=1;aspect=fixed;dashed=1;dashPattern=1 2;fillColor=#dae8fc;strokeColor=#6c8ebf;" vertex="1" parent="1">
          <mxGeometry x="470" y="760" width="10" height="10" as="geometry" />
        </mxCell>
        <mxCell id="N3uVrDPWJQUxGeQVg-p2-189" value="" style="whiteSpace=wrap;html=1;aspect=fixed;dashed=1;dashPattern=1 2;fillColor=#dae8fc;strokeColor=#6c8ebf;" vertex="1" parent="1">
          <mxGeometry x="470" y="770" width="10" height="10" as="geometry" />
        </mxCell>
        <mxCell id="N3uVrDPWJQUxGeQVg-p2-190" value="" style="whiteSpace=wrap;html=1;aspect=fixed;dashed=1;dashPattern=1 2;fillColor=#dae8fc;strokeColor=#6c8ebf;" vertex="1" parent="1">
          <mxGeometry x="470" y="780" width="10" height="10" as="geometry" />
        </mxCell>
        <mxCell id="N3uVrDPWJQUxGeQVg-p2-191" value="" style="whiteSpace=wrap;html=1;aspect=fixed;dashed=1;dashPattern=1 2;fillColor=#60a917;strokeColor=#2D7600;fontColor=#ffffff;" vertex="1" parent="1">
          <mxGeometry x="470" y="790" width="10" height="10" as="geometry" />
        </mxCell>
        <mxCell id="N3uVrDPWJQUxGeQVg-p2-192" value="" style="whiteSpace=wrap;html=1;aspect=fixed;dashed=1;dashPattern=1 2;fillColor=#60a917;strokeColor=#2D7600;fontColor=#ffffff;" vertex="1" parent="1">
          <mxGeometry x="470" y="800" width="10" height="10" as="geometry" />
        </mxCell>
        <mxCell id="N3uVrDPWJQUxGeQVg-p2-193" value="" style="whiteSpace=wrap;html=1;aspect=fixed;dashed=1;dashPattern=1 2;fillColor=#dae8fc;strokeColor=#6c8ebf;" vertex="1" parent="1">
          <mxGeometry x="470" y="810" width="10" height="10" as="geometry" />
        </mxCell>
        <mxCell id="N3uVrDPWJQUxGeQVg-p2-194" value="" style="whiteSpace=wrap;html=1;aspect=fixed;dashed=1;dashPattern=1 2;fillColor=#ffe6cc;strokeColor=#d79b00;" vertex="1" parent="1">
          <mxGeometry x="470" y="820" width="10" height="10" as="geometry" />
        </mxCell>
        <mxCell id="N3uVrDPWJQUxGeQVg-p2-195" value="" style="whiteSpace=wrap;html=1;aspect=fixed;dashed=1;dashPattern=1 2;fillColor=#ffe6cc;strokeColor=#d79b00;" vertex="1" parent="1">
          <mxGeometry x="470" y="830" width="10" height="10" as="geometry" />
        </mxCell>
        <mxCell id="N3uVrDPWJQUxGeQVg-p2-196" value="" style="whiteSpace=wrap;html=1;aspect=fixed;dashed=1;dashPattern=1 2;fillColor=#ffe6cc;strokeColor=#d79b00;" vertex="1" parent="1">
          <mxGeometry x="320" y="840" width="10" height="10" as="geometry" />
        </mxCell>
        <mxCell id="N3uVrDPWJQUxGeQVg-p2-197" value="" style="whiteSpace=wrap;html=1;aspect=fixed;dashed=1;dashPattern=1 2;fillColor=#ffe6cc;strokeColor=#d79b00;" vertex="1" parent="1">
          <mxGeometry x="330" y="840" width="10" height="10" as="geometry" />
        </mxCell>
        <mxCell id="N3uVrDPWJQUxGeQVg-p2-198" value="" style="whiteSpace=wrap;html=1;aspect=fixed;dashed=1;dashPattern=1 2;fillColor=#ffe6cc;strokeColor=#d79b00;" vertex="1" parent="1">
          <mxGeometry x="340" y="840" width="10" height="10" as="geometry" />
        </mxCell>
        <mxCell id="N3uVrDPWJQUxGeQVg-p2-199" value="" style="whiteSpace=wrap;html=1;aspect=fixed;dashed=1;dashPattern=1 2;fillColor=#ffe6cc;strokeColor=#d79b00;" vertex="1" parent="1">
          <mxGeometry x="350" y="840" width="10" height="10" as="geometry" />
        </mxCell>
        <mxCell id="N3uVrDPWJQUxGeQVg-p2-200" value="" style="whiteSpace=wrap;html=1;aspect=fixed;dashed=1;dashPattern=1 2;fillColor=#ffe6cc;strokeColor=#d79b00;" vertex="1" parent="1">
          <mxGeometry x="360" y="840" width="10" height="10" as="geometry" />
        </mxCell>
        <mxCell id="N3uVrDPWJQUxGeQVg-p2-201" value="" style="whiteSpace=wrap;html=1;aspect=fixed;dashed=1;dashPattern=1 2;fillColor=#ffe6cc;strokeColor=#d79b00;" vertex="1" parent="1">
          <mxGeometry x="370" y="840" width="10" height="10" as="geometry" />
        </mxCell>
        <mxCell id="N3uVrDPWJQUxGeQVg-p2-202" value="" style="whiteSpace=wrap;html=1;aspect=fixed;dashed=1;dashPattern=1 2;fillColor=#ffe6cc;strokeColor=#d79b00;" vertex="1" parent="1">
          <mxGeometry x="380" y="840" width="10" height="10" as="geometry" />
        </mxCell>
        <mxCell id="N3uVrDPWJQUxGeQVg-p2-203" value="" style="whiteSpace=wrap;html=1;aspect=fixed;dashed=1;dashPattern=1 2;fillColor=#ffe6cc;strokeColor=#d79b00;" vertex="1" parent="1">
          <mxGeometry x="390" y="840" width="10" height="10" as="geometry" />
        </mxCell>
        <mxCell id="N3uVrDPWJQUxGeQVg-p2-204" value="" style="whiteSpace=wrap;html=1;aspect=fixed;dashed=1;dashPattern=1 2;fillColor=#ffe6cc;strokeColor=#d79b00;" vertex="1" parent="1">
          <mxGeometry x="400" y="840" width="10" height="10" as="geometry" />
        </mxCell>
        <mxCell id="N3uVrDPWJQUxGeQVg-p2-205" value="" style="whiteSpace=wrap;html=1;aspect=fixed;dashed=1;dashPattern=1 2;fillColor=#6d8764;strokeColor=#3A5431;fontColor=#ffffff;" vertex="1" parent="1">
          <mxGeometry x="410" y="840" width="10" height="10" as="geometry" />
        </mxCell>
        <mxCell id="N3uVrDPWJQUxGeQVg-p2-206" value="" style="whiteSpace=wrap;html=1;aspect=fixed;dashed=1;dashPattern=1 2;fillColor=#ffe6cc;strokeColor=#d79b00;" vertex="1" parent="1">
          <mxGeometry x="420" y="840" width="10" height="10" as="geometry" />
        </mxCell>
        <mxCell id="N3uVrDPWJQUxGeQVg-p2-207" value="" style="whiteSpace=wrap;html=1;aspect=fixed;dashed=1;dashPattern=1 2;fillColor=#ffe6cc;strokeColor=#d79b00;" vertex="1" parent="1">
          <mxGeometry x="430" y="840" width="10" height="10" as="geometry" />
        </mxCell>
        <mxCell id="N3uVrDPWJQUxGeQVg-p2-208" value="" style="whiteSpace=wrap;html=1;aspect=fixed;dashed=1;dashPattern=1 2;fillColor=#ffe6cc;strokeColor=#d79b00;" vertex="1" parent="1">
          <mxGeometry x="310" y="840" width="10" height="10" as="geometry" />
        </mxCell>
        <mxCell id="N3uVrDPWJQUxGeQVg-p2-209" value="" style="whiteSpace=wrap;html=1;aspect=fixed;dashed=1;dashPattern=1 2;fillColor=#ffe6cc;strokeColor=#d79b00;" vertex="1" parent="1">
          <mxGeometry x="310" y="840" width="10" height="10" as="geometry" />
        </mxCell>
        <mxCell id="N3uVrDPWJQUxGeQVg-p2-210" value="" style="whiteSpace=wrap;html=1;aspect=fixed;dashed=1;dashPattern=1 2;fillColor=#ffe6cc;strokeColor=#d79b00;" vertex="1" parent="1">
          <mxGeometry x="300" y="840" width="10" height="10" as="geometry" />
        </mxCell>
        <mxCell id="N3uVrDPWJQUxGeQVg-p2-211" value="" style="whiteSpace=wrap;html=1;aspect=fixed;dashed=1;dashPattern=1 2;fillColor=#ffe6cc;strokeColor=#d79b00;" vertex="1" parent="1">
          <mxGeometry x="290" y="840" width="10" height="10" as="geometry" />
        </mxCell>
        <mxCell id="N3uVrDPWJQUxGeQVg-p2-212" value="" style="whiteSpace=wrap;html=1;aspect=fixed;dashed=1;dashPattern=1 2;fillColor=#ffe6cc;strokeColor=#d79b00;" vertex="1" parent="1">
          <mxGeometry x="280" y="840" width="10" height="10" as="geometry" />
        </mxCell>
        <mxCell id="N3uVrDPWJQUxGeQVg-p2-213" value="" style="whiteSpace=wrap;html=1;aspect=fixed;dashed=1;dashPattern=1 2;fillColor=#ffe6cc;strokeColor=#d79b00;" vertex="1" parent="1">
          <mxGeometry x="440" y="840" width="10" height="10" as="geometry" />
        </mxCell>
        <mxCell id="N3uVrDPWJQUxGeQVg-p2-214" value="" style="whiteSpace=wrap;html=1;aspect=fixed;dashed=1;dashPattern=1 2;fillColor=#ffe6cc;strokeColor=#d79b00;" vertex="1" parent="1">
          <mxGeometry x="450" y="840" width="10" height="10" as="geometry" />
        </mxCell>
        <mxCell id="N3uVrDPWJQUxGeQVg-p2-215" value="" style="whiteSpace=wrap;html=1;aspect=fixed;dashed=1;dashPattern=1 2;fillColor=#ffe6cc;strokeColor=#d79b00;" vertex="1" parent="1">
          <mxGeometry x="460" y="840" width="10" height="10" as="geometry" />
        </mxCell>
        <mxCell id="N3uVrDPWJQUxGeQVg-p2-216" value="" style="whiteSpace=wrap;html=1;aspect=fixed;dashed=1;dashPattern=1 2;fillColor=#ffe6cc;strokeColor=#d79b00;" vertex="1" parent="1">
          <mxGeometry x="470" y="840" width="10" height="10" as="geometry" />
        </mxCell>
        <mxCell id="N3uVrDPWJQUxGeQVg-p2-217" value="" style="whiteSpace=wrap;html=1;aspect=fixed;dashed=1;dashPattern=1 2;fillColor=#ffe6cc;strokeColor=#d79b00;" vertex="1" parent="1">
          <mxGeometry x="320" y="850" width="10" height="10" as="geometry" />
        </mxCell>
        <mxCell id="N3uVrDPWJQUxGeQVg-p2-218" value="" style="whiteSpace=wrap;html=1;aspect=fixed;dashed=1;dashPattern=1 2;fillColor=#ffe6cc;strokeColor=#d79b00;" vertex="1" parent="1">
          <mxGeometry x="330" y="850" width="10" height="10" as="geometry" />
        </mxCell>
        <mxCell id="N3uVrDPWJQUxGeQVg-p2-219" value="" style="whiteSpace=wrap;html=1;aspect=fixed;dashed=1;dashPattern=1 2;fillColor=#ffe6cc;strokeColor=#d79b00;" vertex="1" parent="1">
          <mxGeometry x="340" y="850" width="10" height="10" as="geometry" />
        </mxCell>
        <mxCell id="N3uVrDPWJQUxGeQVg-p2-220" value="" style="whiteSpace=wrap;html=1;aspect=fixed;dashed=1;dashPattern=1 2;fillColor=#ffe6cc;strokeColor=#d79b00;" vertex="1" parent="1">
          <mxGeometry x="350" y="850" width="10" height="10" as="geometry" />
        </mxCell>
        <mxCell id="N3uVrDPWJQUxGeQVg-p2-221" value="" style="whiteSpace=wrap;html=1;aspect=fixed;dashed=1;dashPattern=1 2;fillColor=#ffe6cc;strokeColor=#d79b00;" vertex="1" parent="1">
          <mxGeometry x="360" y="850" width="10" height="10" as="geometry" />
        </mxCell>
        <mxCell id="N3uVrDPWJQUxGeQVg-p2-222" value="" style="whiteSpace=wrap;html=1;aspect=fixed;dashed=1;dashPattern=1 2;fillColor=#ffe6cc;strokeColor=#d79b00;" vertex="1" parent="1">
          <mxGeometry x="370" y="850" width="10" height="10" as="geometry" />
        </mxCell>
        <mxCell id="N3uVrDPWJQUxGeQVg-p2-223" value="" style="whiteSpace=wrap;html=1;aspect=fixed;dashed=1;dashPattern=1 2;fillColor=#ffe6cc;strokeColor=#d79b00;" vertex="1" parent="1">
          <mxGeometry x="380" y="850" width="10" height="10" as="geometry" />
        </mxCell>
        <mxCell id="N3uVrDPWJQUxGeQVg-p2-224" value="" style="whiteSpace=wrap;html=1;aspect=fixed;dashed=1;dashPattern=1 2;fillColor=#ffe6cc;strokeColor=#d79b00;" vertex="1" parent="1">
          <mxGeometry x="390" y="850" width="10" height="10" as="geometry" />
        </mxCell>
        <mxCell id="N3uVrDPWJQUxGeQVg-p2-225" value="" style="whiteSpace=wrap;html=1;aspect=fixed;dashed=1;dashPattern=1 2;fillColor=#ffe6cc;strokeColor=#d79b00;" vertex="1" parent="1">
          <mxGeometry x="400" y="850" width="10" height="10" as="geometry" />
        </mxCell>
        <mxCell id="N3uVrDPWJQUxGeQVg-p2-226" value="" style="whiteSpace=wrap;html=1;aspect=fixed;dashed=1;dashPattern=1 2;fillColor=#6d8764;strokeColor=#3A5431;fontColor=#ffffff;" vertex="1" parent="1">
          <mxGeometry x="410" y="850" width="10" height="10" as="geometry" />
        </mxCell>
        <mxCell id="N3uVrDPWJQUxGeQVg-p2-227" value="" style="whiteSpace=wrap;html=1;aspect=fixed;dashed=1;dashPattern=1 2;fillColor=#ffe6cc;strokeColor=#d79b00;" vertex="1" parent="1">
          <mxGeometry x="420" y="850" width="10" height="10" as="geometry" />
        </mxCell>
        <mxCell id="N3uVrDPWJQUxGeQVg-p2-228" value="" style="whiteSpace=wrap;html=1;aspect=fixed;dashed=1;dashPattern=1 2;fillColor=#ffe6cc;strokeColor=#d79b00;" vertex="1" parent="1">
          <mxGeometry x="430" y="850" width="10" height="10" as="geometry" />
        </mxCell>
        <mxCell id="N3uVrDPWJQUxGeQVg-p2-229" value="" style="whiteSpace=wrap;html=1;aspect=fixed;dashed=1;dashPattern=1 2;fillColor=#ffe6cc;strokeColor=#d79b00;" vertex="1" parent="1">
          <mxGeometry x="310" y="850" width="10" height="10" as="geometry" />
        </mxCell>
        <mxCell id="N3uVrDPWJQUxGeQVg-p2-230" value="" style="whiteSpace=wrap;html=1;aspect=fixed;dashed=1;dashPattern=1 2;fillColor=#ffe6cc;strokeColor=#d79b00;" vertex="1" parent="1">
          <mxGeometry x="310" y="850" width="10" height="10" as="geometry" />
        </mxCell>
        <mxCell id="N3uVrDPWJQUxGeQVg-p2-231" value="" style="whiteSpace=wrap;html=1;aspect=fixed;dashed=1;dashPattern=1 2;fillColor=#ffe6cc;strokeColor=#d79b00;" vertex="1" parent="1">
          <mxGeometry x="300" y="850" width="10" height="10" as="geometry" />
        </mxCell>
        <mxCell id="N3uVrDPWJQUxGeQVg-p2-232" value="" style="whiteSpace=wrap;html=1;aspect=fixed;dashed=1;dashPattern=1 2;fillColor=#ffe6cc;strokeColor=#d79b00;" vertex="1" parent="1">
          <mxGeometry x="290" y="850" width="10" height="10" as="geometry" />
        </mxCell>
        <mxCell id="N3uVrDPWJQUxGeQVg-p2-233" value="" style="whiteSpace=wrap;html=1;aspect=fixed;dashed=1;dashPattern=1 2;fillColor=#ffe6cc;strokeColor=#d79b00;" vertex="1" parent="1">
          <mxGeometry x="280" y="850" width="10" height="10" as="geometry" />
        </mxCell>
        <mxCell id="N3uVrDPWJQUxGeQVg-p2-234" value="" style="whiteSpace=wrap;html=1;aspect=fixed;dashed=1;dashPattern=1 2;fillColor=#ffe6cc;strokeColor=#d79b00;" vertex="1" parent="1">
          <mxGeometry x="440" y="850" width="10" height="10" as="geometry" />
        </mxCell>
        <mxCell id="N3uVrDPWJQUxGeQVg-p2-235" value="" style="whiteSpace=wrap;html=1;aspect=fixed;dashed=1;dashPattern=1 2;fillColor=#ffe6cc;strokeColor=#d79b00;" vertex="1" parent="1">
          <mxGeometry x="450" y="850" width="10" height="10" as="geometry" />
        </mxCell>
        <mxCell id="N3uVrDPWJQUxGeQVg-p2-236" value="" style="whiteSpace=wrap;html=1;aspect=fixed;dashed=1;dashPattern=1 2;fillColor=#ffe6cc;strokeColor=#d79b00;" vertex="1" parent="1">
          <mxGeometry x="460" y="850" width="10" height="10" as="geometry" />
        </mxCell>
        <mxCell id="N3uVrDPWJQUxGeQVg-p2-237" value="" style="whiteSpace=wrap;html=1;aspect=fixed;dashed=1;dashPattern=1 2;fillColor=#ffe6cc;strokeColor=#d79b00;" vertex="1" parent="1">
          <mxGeometry x="470" y="850" width="10" height="10" as="geometry" />
        </mxCell>
        <mxCell id="N3uVrDPWJQUxGeQVg-p2-238" value="" style="whiteSpace=wrap;html=1;aspect=fixed;dashed=1;dashPattern=1 2;fillColor=#ffe6cc;strokeColor=#d79b00;" vertex="1" parent="1">
          <mxGeometry x="320" y="860" width="10" height="10" as="geometry" />
        </mxCell>
        <mxCell id="N3uVrDPWJQUxGeQVg-p2-239" value="" style="whiteSpace=wrap;html=1;aspect=fixed;dashed=1;dashPattern=1 2;fillColor=#ffe6cc;strokeColor=#d79b00;" vertex="1" parent="1">
          <mxGeometry x="330" y="860" width="10" height="10" as="geometry" />
        </mxCell>
        <mxCell id="N3uVrDPWJQUxGeQVg-p2-240" value="" style="whiteSpace=wrap;html=1;aspect=fixed;dashed=1;dashPattern=1 2;fillColor=#ffe6cc;strokeColor=#d79b00;" vertex="1" parent="1">
          <mxGeometry x="340" y="860" width="10" height="10" as="geometry" />
        </mxCell>
        <mxCell id="N3uVrDPWJQUxGeQVg-p2-241" value="" style="whiteSpace=wrap;html=1;aspect=fixed;dashed=1;dashPattern=1 2;fillColor=#ffe6cc;strokeColor=#d79b00;" vertex="1" parent="1">
          <mxGeometry x="350" y="860" width="10" height="10" as="geometry" />
        </mxCell>
        <mxCell id="N3uVrDPWJQUxGeQVg-p2-242" value="" style="whiteSpace=wrap;html=1;aspect=fixed;dashed=1;dashPattern=1 2;fillColor=#ffe6cc;strokeColor=#d79b00;" vertex="1" parent="1">
          <mxGeometry x="360" y="860" width="10" height="10" as="geometry" />
        </mxCell>
        <mxCell id="N3uVrDPWJQUxGeQVg-p2-243" value="" style="whiteSpace=wrap;html=1;aspect=fixed;dashed=1;dashPattern=1 2;fillColor=#ffe6cc;strokeColor=#d79b00;" vertex="1" parent="1">
          <mxGeometry x="370" y="860" width="10" height="10" as="geometry" />
        </mxCell>
        <mxCell id="N3uVrDPWJQUxGeQVg-p2-244" value="" style="whiteSpace=wrap;html=1;aspect=fixed;dashed=1;dashPattern=1 2;fillColor=#ffe6cc;strokeColor=#d79b00;" vertex="1" parent="1">
          <mxGeometry x="380" y="860" width="10" height="10" as="geometry" />
        </mxCell>
        <mxCell id="N3uVrDPWJQUxGeQVg-p2-245" value="" style="whiteSpace=wrap;html=1;aspect=fixed;dashed=1;dashPattern=1 2;fillColor=#ffe6cc;strokeColor=#d79b00;" vertex="1" parent="1">
          <mxGeometry x="390" y="860" width="10" height="10" as="geometry" />
        </mxCell>
        <mxCell id="N3uVrDPWJQUxGeQVg-p2-246" value="" style="whiteSpace=wrap;html=1;aspect=fixed;dashed=1;dashPattern=1 2;fillColor=#ffe6cc;strokeColor=#d79b00;" vertex="1" parent="1">
          <mxGeometry x="400" y="860" width="10" height="10" as="geometry" />
        </mxCell>
        <mxCell id="N3uVrDPWJQUxGeQVg-p2-247" value="" style="whiteSpace=wrap;html=1;aspect=fixed;dashed=1;dashPattern=1 2;fillColor=#6d8764;strokeColor=#3A5431;fontColor=#ffffff;" vertex="1" parent="1">
          <mxGeometry x="410" y="860" width="10" height="10" as="geometry" />
        </mxCell>
        <mxCell id="N3uVrDPWJQUxGeQVg-p2-248" value="" style="whiteSpace=wrap;html=1;aspect=fixed;dashed=1;dashPattern=1 2;fillColor=#ffe6cc;strokeColor=#d79b00;" vertex="1" parent="1">
          <mxGeometry x="420" y="860" width="10" height="10" as="geometry" />
        </mxCell>
        <mxCell id="N3uVrDPWJQUxGeQVg-p2-249" value="" style="whiteSpace=wrap;html=1;aspect=fixed;dashed=1;dashPattern=1 2;fillColor=#ffe6cc;strokeColor=#d79b00;" vertex="1" parent="1">
          <mxGeometry x="430" y="860" width="10" height="10" as="geometry" />
        </mxCell>
        <mxCell id="N3uVrDPWJQUxGeQVg-p2-250" value="" style="whiteSpace=wrap;html=1;aspect=fixed;dashed=1;dashPattern=1 2;fillColor=#ffe6cc;strokeColor=#d79b00;" vertex="1" parent="1">
          <mxGeometry x="310" y="860" width="10" height="10" as="geometry" />
        </mxCell>
        <mxCell id="N3uVrDPWJQUxGeQVg-p2-251" value="" style="whiteSpace=wrap;html=1;aspect=fixed;dashed=1;dashPattern=1 2;fillColor=#ffe6cc;strokeColor=#d79b00;" vertex="1" parent="1">
          <mxGeometry x="310" y="860" width="10" height="10" as="geometry" />
        </mxCell>
        <mxCell id="N3uVrDPWJQUxGeQVg-p2-252" value="" style="whiteSpace=wrap;html=1;aspect=fixed;dashed=1;dashPattern=1 2;fillColor=#ffe6cc;strokeColor=#d79b00;" vertex="1" parent="1">
          <mxGeometry x="300" y="860" width="10" height="10" as="geometry" />
        </mxCell>
        <mxCell id="N3uVrDPWJQUxGeQVg-p2-253" value="" style="whiteSpace=wrap;html=1;aspect=fixed;dashed=1;dashPattern=1 2;fillColor=#ffe6cc;strokeColor=#d79b00;" vertex="1" parent="1">
          <mxGeometry x="290" y="860" width="10" height="10" as="geometry" />
        </mxCell>
        <mxCell id="N3uVrDPWJQUxGeQVg-p2-254" value="" style="whiteSpace=wrap;html=1;aspect=fixed;dashed=1;dashPattern=1 2;fillColor=#ffe6cc;strokeColor=#d79b00;" vertex="1" parent="1">
          <mxGeometry x="280" y="860" width="10" height="10" as="geometry" />
        </mxCell>
        <mxCell id="N3uVrDPWJQUxGeQVg-p2-255" value="" style="whiteSpace=wrap;html=1;aspect=fixed;dashed=1;dashPattern=1 2;fillColor=#ffe6cc;strokeColor=#d79b00;" vertex="1" parent="1">
          <mxGeometry x="440" y="860" width="10" height="10" as="geometry" />
        </mxCell>
        <mxCell id="N3uVrDPWJQUxGeQVg-p2-256" value="" style="whiteSpace=wrap;html=1;aspect=fixed;dashed=1;dashPattern=1 2;fillColor=#ffe6cc;strokeColor=#d79b00;" vertex="1" parent="1">
          <mxGeometry x="450" y="860" width="10" height="10" as="geometry" />
        </mxCell>
        <mxCell id="N3uVrDPWJQUxGeQVg-p2-257" value="" style="whiteSpace=wrap;html=1;aspect=fixed;dashed=1;dashPattern=1 2;fillColor=#ffe6cc;strokeColor=#d79b00;" vertex="1" parent="1">
          <mxGeometry x="460" y="860" width="10" height="10" as="geometry" />
        </mxCell>
        <mxCell id="N3uVrDPWJQUxGeQVg-p2-258" value="" style="whiteSpace=wrap;html=1;aspect=fixed;dashed=1;dashPattern=1 2;fillColor=#ffe6cc;strokeColor=#d79b00;" vertex="1" parent="1">
          <mxGeometry x="470" y="860" width="10" height="10" as="geometry" />
        </mxCell>
        <mxCell id="N3uVrDPWJQUxGeQVg-p2-259" value="" style="whiteSpace=wrap;html=1;aspect=fixed;dashed=1;dashPattern=1 2;fillColor=#ffe6cc;strokeColor=#d79b00;" vertex="1" parent="1">
          <mxGeometry x="320" y="870" width="10" height="10" as="geometry" />
        </mxCell>
        <mxCell id="N3uVrDPWJQUxGeQVg-p2-260" value="" style="whiteSpace=wrap;html=1;aspect=fixed;dashed=1;dashPattern=1 2;fillColor=#ffe6cc;strokeColor=#d79b00;" vertex="1" parent="1">
          <mxGeometry x="330" y="870" width="10" height="10" as="geometry" />
        </mxCell>
        <mxCell id="N3uVrDPWJQUxGeQVg-p2-261" value="" style="whiteSpace=wrap;html=1;aspect=fixed;dashed=1;dashPattern=1 2;fillColor=#ffe6cc;strokeColor=#d79b00;" vertex="1" parent="1">
          <mxGeometry x="340" y="870" width="10" height="10" as="geometry" />
        </mxCell>
        <mxCell id="N3uVrDPWJQUxGeQVg-p2-262" value="" style="whiteSpace=wrap;html=1;aspect=fixed;dashed=1;dashPattern=1 2;fillColor=#ffe6cc;strokeColor=#d79b00;" vertex="1" parent="1">
          <mxGeometry x="350" y="870" width="10" height="10" as="geometry" />
        </mxCell>
        <mxCell id="N3uVrDPWJQUxGeQVg-p2-263" value="" style="whiteSpace=wrap;html=1;aspect=fixed;dashed=1;dashPattern=1 2;fillColor=#ffe6cc;strokeColor=#d79b00;" vertex="1" parent="1">
          <mxGeometry x="360" y="870" width="10" height="10" as="geometry" />
        </mxCell>
        <mxCell id="N3uVrDPWJQUxGeQVg-p2-264" value="" style="whiteSpace=wrap;html=1;aspect=fixed;dashed=1;dashPattern=1 2;fillColor=#ffe6cc;strokeColor=#d79b00;" vertex="1" parent="1">
          <mxGeometry x="370" y="870" width="10" height="10" as="geometry" />
        </mxCell>
        <mxCell id="N3uVrDPWJQUxGeQVg-p2-265" value="" style="whiteSpace=wrap;html=1;aspect=fixed;dashed=1;dashPattern=1 2;fillColor=#ffe6cc;strokeColor=#d79b00;" vertex="1" parent="1">
          <mxGeometry x="380" y="870" width="10" height="10" as="geometry" />
        </mxCell>
        <mxCell id="N3uVrDPWJQUxGeQVg-p2-266" value="" style="whiteSpace=wrap;html=1;aspect=fixed;dashed=1;dashPattern=1 2;fillColor=#ffe6cc;strokeColor=#d79b00;" vertex="1" parent="1">
          <mxGeometry x="390" y="870" width="10" height="10" as="geometry" />
        </mxCell>
        <mxCell id="N3uVrDPWJQUxGeQVg-p2-267" value="" style="whiteSpace=wrap;html=1;aspect=fixed;dashed=1;dashPattern=1 2;fillColor=#ffe6cc;strokeColor=#d79b00;" vertex="1" parent="1">
          <mxGeometry x="400" y="870" width="10" height="10" as="geometry" />
        </mxCell>
        <mxCell id="N3uVrDPWJQUxGeQVg-p2-268" value="" style="whiteSpace=wrap;html=1;aspect=fixed;dashed=1;dashPattern=1 2;fillColor=#6d8764;strokeColor=#3A5431;fontColor=#ffffff;" vertex="1" parent="1">
          <mxGeometry x="410" y="870" width="10" height="10" as="geometry" />
        </mxCell>
        <mxCell id="N3uVrDPWJQUxGeQVg-p2-269" value="" style="whiteSpace=wrap;html=1;aspect=fixed;dashed=1;dashPattern=1 2;fillColor=#ffe6cc;strokeColor=#d79b00;" vertex="1" parent="1">
          <mxGeometry x="420" y="870" width="10" height="10" as="geometry" />
        </mxCell>
        <mxCell id="N3uVrDPWJQUxGeQVg-p2-270" value="" style="whiteSpace=wrap;html=1;aspect=fixed;dashed=1;dashPattern=1 2;fillColor=#ffe6cc;strokeColor=#d79b00;" vertex="1" parent="1">
          <mxGeometry x="430" y="870" width="10" height="10" as="geometry" />
        </mxCell>
        <mxCell id="N3uVrDPWJQUxGeQVg-p2-271" value="" style="whiteSpace=wrap;html=1;aspect=fixed;dashed=1;dashPattern=1 2;fillColor=#ffe6cc;strokeColor=#d79b00;" vertex="1" parent="1">
          <mxGeometry x="310" y="870" width="10" height="10" as="geometry" />
        </mxCell>
        <mxCell id="N3uVrDPWJQUxGeQVg-p2-272" value="" style="whiteSpace=wrap;html=1;aspect=fixed;dashed=1;dashPattern=1 2;fillColor=#ffe6cc;strokeColor=#d79b00;" vertex="1" parent="1">
          <mxGeometry x="310" y="870" width="10" height="10" as="geometry" />
        </mxCell>
        <mxCell id="N3uVrDPWJQUxGeQVg-p2-273" value="" style="whiteSpace=wrap;html=1;aspect=fixed;dashed=1;dashPattern=1 2;fillColor=#ffe6cc;strokeColor=#d79b00;" vertex="1" parent="1">
          <mxGeometry x="300" y="870" width="10" height="10" as="geometry" />
        </mxCell>
        <mxCell id="N3uVrDPWJQUxGeQVg-p2-274" value="" style="whiteSpace=wrap;html=1;aspect=fixed;dashed=1;dashPattern=1 2;fillColor=#ffe6cc;strokeColor=#d79b00;" vertex="1" parent="1">
          <mxGeometry x="290" y="870" width="10" height="10" as="geometry" />
        </mxCell>
        <mxCell id="N3uVrDPWJQUxGeQVg-p2-275" value="" style="whiteSpace=wrap;html=1;aspect=fixed;dashed=1;dashPattern=1 2;fillColor=#ffe6cc;strokeColor=#d79b00;" vertex="1" parent="1">
          <mxGeometry x="280" y="870" width="10" height="10" as="geometry" />
        </mxCell>
        <mxCell id="N3uVrDPWJQUxGeQVg-p2-276" value="" style="whiteSpace=wrap;html=1;aspect=fixed;dashed=1;dashPattern=1 2;fillColor=#ffe6cc;strokeColor=#d79b00;" vertex="1" parent="1">
          <mxGeometry x="440" y="870" width="10" height="10" as="geometry" />
        </mxCell>
        <mxCell id="N3uVrDPWJQUxGeQVg-p2-277" value="" style="whiteSpace=wrap;html=1;aspect=fixed;dashed=1;dashPattern=1 2;fillColor=#ffe6cc;strokeColor=#d79b00;" vertex="1" parent="1">
          <mxGeometry x="450" y="870" width="10" height="10" as="geometry" />
        </mxCell>
        <mxCell id="N3uVrDPWJQUxGeQVg-p2-278" value="" style="whiteSpace=wrap;html=1;aspect=fixed;dashed=1;dashPattern=1 2;fillColor=#ffe6cc;strokeColor=#d79b00;" vertex="1" parent="1">
          <mxGeometry x="460" y="870" width="10" height="10" as="geometry" />
        </mxCell>
        <mxCell id="N3uVrDPWJQUxGeQVg-p2-279" value="" style="whiteSpace=wrap;html=1;aspect=fixed;dashed=1;dashPattern=1 2;fillColor=#ffe6cc;strokeColor=#d79b00;" vertex="1" parent="1">
          <mxGeometry x="470" y="870" width="10" height="10" as="geometry" />
        </mxCell>
        <mxCell id="N3uVrDPWJQUxGeQVg-p2-114" value="" style="rounded=0;whiteSpace=wrap;html=1;fillColor=none;" vertex="1" parent="1">
          <mxGeometry x="320" y="760" width="120" height="80" as="geometry" />
        </mxCell>
        <mxCell id="N3uVrDPWJQUxGeQVg-p2-364" value="" style="whiteSpace=wrap;html=1;aspect=fixed;dashed=1;dashPattern=1 2;fillColor=#dae8fc;strokeColor=#6c8ebf;" vertex="1" parent="1">
          <mxGeometry x="80" y="760" width="10" height="10" as="geometry" />
        </mxCell>
        <mxCell id="N3uVrDPWJQUxGeQVg-p2-365" value="" style="whiteSpace=wrap;html=1;aspect=fixed;dashed=1;dashPattern=1 2;fillColor=#dae8fc;strokeColor=#6c8ebf;" vertex="1" parent="1">
          <mxGeometry x="90" y="760" width="10" height="10" as="geometry" />
        </mxCell>
        <mxCell id="N3uVrDPWJQUxGeQVg-p2-366" value="" style="whiteSpace=wrap;html=1;aspect=fixed;dashed=1;dashPattern=1 2;fillColor=#dae8fc;strokeColor=#6c8ebf;" vertex="1" parent="1">
          <mxGeometry x="100" y="760" width="10" height="10" as="geometry" />
        </mxCell>
        <mxCell id="N3uVrDPWJQUxGeQVg-p2-367" value="" style="whiteSpace=wrap;html=1;aspect=fixed;dashed=1;dashPattern=1 2;fillColor=#dae8fc;strokeColor=#6c8ebf;" vertex="1" parent="1">
          <mxGeometry x="110" y="760" width="10" height="10" as="geometry" />
        </mxCell>
        <mxCell id="N3uVrDPWJQUxGeQVg-p2-368" value="" style="whiteSpace=wrap;html=1;aspect=fixed;dashed=1;dashPattern=1 2;fillColor=#dae8fc;strokeColor=#6c8ebf;" vertex="1" parent="1">
          <mxGeometry x="120" y="760" width="10" height="10" as="geometry" />
        </mxCell>
        <mxCell id="N3uVrDPWJQUxGeQVg-p2-369" value="" style="whiteSpace=wrap;html=1;aspect=fixed;dashed=1;dashPattern=1 2;fillColor=#dae8fc;strokeColor=#6c8ebf;" vertex="1" parent="1">
          <mxGeometry x="130" y="760" width="10" height="10" as="geometry" />
        </mxCell>
        <mxCell id="N3uVrDPWJQUxGeQVg-p2-370" value="" style="whiteSpace=wrap;html=1;aspect=fixed;dashed=1;dashPattern=1 2;fillColor=#dae8fc;strokeColor=#6c8ebf;" vertex="1" parent="1">
          <mxGeometry x="140" y="760" width="10" height="10" as="geometry" />
        </mxCell>
        <mxCell id="N3uVrDPWJQUxGeQVg-p2-371" value="" style="whiteSpace=wrap;html=1;aspect=fixed;dashed=1;dashPattern=1 2;fillColor=#dae8fc;strokeColor=#6c8ebf;" vertex="1" parent="1">
          <mxGeometry x="150" y="760" width="10" height="10" as="geometry" />
        </mxCell>
        <mxCell id="N3uVrDPWJQUxGeQVg-p2-372" value="" style="whiteSpace=wrap;html=1;aspect=fixed;dashed=1;dashPattern=1 2;fillColor=#dae8fc;strokeColor=#6c8ebf;" vertex="1" parent="1">
          <mxGeometry x="160" y="760" width="10" height="10" as="geometry" />
        </mxCell>
        <mxCell id="N3uVrDPWJQUxGeQVg-p2-373" value="" style="whiteSpace=wrap;html=1;aspect=fixed;dashed=1;dashPattern=1 2;fillColor=#dae8fc;strokeColor=#6c8ebf;" vertex="1" parent="1">
          <mxGeometry x="170" y="760" width="10" height="10" as="geometry" />
        </mxCell>
        <mxCell id="N3uVrDPWJQUxGeQVg-p2-374" value="" style="whiteSpace=wrap;html=1;aspect=fixed;dashed=1;dashPattern=1 2;fillColor=#dae8fc;strokeColor=#6c8ebf;" vertex="1" parent="1">
          <mxGeometry x="180" y="760" width="10" height="10" as="geometry" />
        </mxCell>
        <mxCell id="N3uVrDPWJQUxGeQVg-p2-375" value="" style="whiteSpace=wrap;html=1;aspect=fixed;dashed=1;dashPattern=1 2;fillColor=#dae8fc;strokeColor=#6c8ebf;" vertex="1" parent="1">
          <mxGeometry x="190" y="760" width="10" height="10" as="geometry" />
        </mxCell>
        <mxCell id="N3uVrDPWJQUxGeQVg-p2-376" value="" style="whiteSpace=wrap;html=1;aspect=fixed;dashed=1;dashPattern=1 2;fillColor=#dae8fc;strokeColor=#6c8ebf;" vertex="1" parent="1">
          <mxGeometry x="80" y="770" width="10" height="10" as="geometry" />
        </mxCell>
        <mxCell id="N3uVrDPWJQUxGeQVg-p2-377" value="" style="whiteSpace=wrap;html=1;aspect=fixed;dashed=1;dashPattern=1 2;fillColor=#dae8fc;strokeColor=#6c8ebf;" vertex="1" parent="1">
          <mxGeometry x="90" y="770" width="10" height="10" as="geometry" />
        </mxCell>
        <mxCell id="N3uVrDPWJQUxGeQVg-p2-378" value="" style="whiteSpace=wrap;html=1;aspect=fixed;dashed=1;dashPattern=1 2;fillColor=#dae8fc;strokeColor=#6c8ebf;" vertex="1" parent="1">
          <mxGeometry x="100" y="770" width="10" height="10" as="geometry" />
        </mxCell>
        <mxCell id="N3uVrDPWJQUxGeQVg-p2-379" value="" style="whiteSpace=wrap;html=1;aspect=fixed;dashed=1;dashPattern=1 2;fillColor=#e51400;strokeColor=#B20000;fontColor=#ffffff;" vertex="1" parent="1">
          <mxGeometry x="110" y="770" width="10" height="10" as="geometry" />
        </mxCell>
        <mxCell id="N3uVrDPWJQUxGeQVg-p2-380" value="" style="whiteSpace=wrap;html=1;aspect=fixed;dashed=1;dashPattern=1 2;fillColor=#dae8fc;strokeColor=#6c8ebf;" vertex="1" parent="1">
          <mxGeometry x="120" y="770" width="10" height="10" as="geometry" />
        </mxCell>
        <mxCell id="N3uVrDPWJQUxGeQVg-p2-381" value="" style="whiteSpace=wrap;html=1;aspect=fixed;dashed=1;dashPattern=1 2;fillColor=#e51400;strokeColor=#B20000;fontColor=#ffffff;" vertex="1" parent="1">
          <mxGeometry x="130" y="770" width="10" height="10" as="geometry" />
        </mxCell>
        <mxCell id="N3uVrDPWJQUxGeQVg-p2-382" value="" style="whiteSpace=wrap;html=1;aspect=fixed;dashed=1;dashPattern=1 2;fillColor=#dae8fc;strokeColor=#6c8ebf;" vertex="1" parent="1">
          <mxGeometry x="140" y="770" width="10" height="10" as="geometry" />
        </mxCell>
        <mxCell id="N3uVrDPWJQUxGeQVg-p2-383" value="" style="whiteSpace=wrap;html=1;aspect=fixed;dashed=1;dashPattern=1 2;fillColor=#dae8fc;strokeColor=#6c8ebf;" vertex="1" parent="1">
          <mxGeometry x="150" y="770" width="10" height="10" as="geometry" />
        </mxCell>
        <mxCell id="N3uVrDPWJQUxGeQVg-p2-384" value="" style="whiteSpace=wrap;html=1;aspect=fixed;dashed=1;dashPattern=1 2;fillColor=#60a917;strokeColor=#2D7600;fontColor=#ffffff;" vertex="1" parent="1">
          <mxGeometry x="160" y="770" width="10" height="10" as="geometry" />
        </mxCell>
        <mxCell id="N3uVrDPWJQUxGeQVg-p2-385" value="" style="whiteSpace=wrap;html=1;aspect=fixed;dashed=1;dashPattern=1 2;fillColor=#60a917;strokeColor=#2D7600;fontColor=#ffffff;" vertex="1" parent="1">
          <mxGeometry x="170" y="770" width="10" height="10" as="geometry" />
        </mxCell>
        <mxCell id="N3uVrDPWJQUxGeQVg-p2-386" value="" style="whiteSpace=wrap;html=1;aspect=fixed;dashed=1;dashPattern=1 2;fillColor=#60a917;strokeColor=#2D7600;fontColor=#ffffff;" vertex="1" parent="1">
          <mxGeometry x="180" y="770" width="10" height="10" as="geometry" />
        </mxCell>
        <mxCell id="N3uVrDPWJQUxGeQVg-p2-387" value="" style="whiteSpace=wrap;html=1;aspect=fixed;dashed=1;dashPattern=1 2;fillColor=#dae8fc;strokeColor=#6c8ebf;" vertex="1" parent="1">
          <mxGeometry x="190" y="770" width="10" height="10" as="geometry" />
        </mxCell>
        <mxCell id="N3uVrDPWJQUxGeQVg-p2-388" value="" style="whiteSpace=wrap;html=1;aspect=fixed;dashed=1;dashPattern=1 2;fillColor=#dae8fc;strokeColor=#6c8ebf;" vertex="1" parent="1">
          <mxGeometry x="80" y="780" width="10" height="10" as="geometry" />
        </mxCell>
        <mxCell id="N3uVrDPWJQUxGeQVg-p2-389" value="" style="whiteSpace=wrap;html=1;aspect=fixed;dashed=1;dashPattern=1 2;fillColor=#dae8fc;strokeColor=#6c8ebf;" vertex="1" parent="1">
          <mxGeometry x="90" y="780" width="10" height="10" as="geometry" />
        </mxCell>
        <mxCell id="N3uVrDPWJQUxGeQVg-p2-390" value="" style="whiteSpace=wrap;html=1;aspect=fixed;dashed=1;dashPattern=1 2;fillColor=#e51400;strokeColor=#B20000;fontColor=#ffffff;" vertex="1" parent="1">
          <mxGeometry x="100" y="780" width="10" height="10" as="geometry" />
        </mxCell>
        <mxCell id="N3uVrDPWJQUxGeQVg-p2-391" value="" style="whiteSpace=wrap;html=1;aspect=fixed;dashed=1;dashPattern=1 2;fillColor=#e51400;strokeColor=#B20000;fontColor=#ffffff;" vertex="1" parent="1">
          <mxGeometry x="110" y="780" width="10" height="10" as="geometry" />
        </mxCell>
        <mxCell id="N3uVrDPWJQUxGeQVg-p2-392" value="" style="whiteSpace=wrap;html=1;aspect=fixed;dashed=1;dashPattern=1 2;fillColor=#e51400;strokeColor=#B20000;fontColor=#ffffff;" vertex="1" parent="1">
          <mxGeometry x="120" y="780" width="10" height="10" as="geometry" />
        </mxCell>
        <mxCell id="N3uVrDPWJQUxGeQVg-p2-393" value="" style="whiteSpace=wrap;html=1;aspect=fixed;dashed=1;dashPattern=1 2;fillColor=#e51400;strokeColor=#B20000;fontColor=#ffffff;" vertex="1" parent="1">
          <mxGeometry x="130" y="780" width="10" height="10" as="geometry" />
        </mxCell>
        <mxCell id="N3uVrDPWJQUxGeQVg-p2-394" value="" style="whiteSpace=wrap;html=1;aspect=fixed;dashed=1;dashPattern=1 2;fillColor=#e51400;strokeColor=#B20000;fontColor=#ffffff;" vertex="1" parent="1">
          <mxGeometry x="140" y="780" width="10" height="10" as="geometry" />
        </mxCell>
        <mxCell id="N3uVrDPWJQUxGeQVg-p2-395" value="" style="whiteSpace=wrap;html=1;aspect=fixed;dashed=1;dashPattern=1 2;fillColor=#dae8fc;strokeColor=#6c8ebf;" vertex="1" parent="1">
          <mxGeometry x="150" y="780" width="10" height="10" as="geometry" />
        </mxCell>
        <mxCell id="N3uVrDPWJQUxGeQVg-p2-396" value="" style="whiteSpace=wrap;html=1;aspect=fixed;dashed=1;dashPattern=1 2;fillColor=#60a917;strokeColor=#2D7600;fontColor=#ffffff;" vertex="1" parent="1">
          <mxGeometry x="160" y="780" width="10" height="10" as="geometry" />
        </mxCell>
        <mxCell id="N3uVrDPWJQUxGeQVg-p2-397" value="" style="whiteSpace=wrap;html=1;aspect=fixed;dashed=1;dashPattern=1 2;fillColor=#60a917;strokeColor=#2D7600;fontColor=#ffffff;" vertex="1" parent="1">
          <mxGeometry x="170" y="780" width="10" height="10" as="geometry" />
        </mxCell>
        <mxCell id="N3uVrDPWJQUxGeQVg-p2-398" value="" style="whiteSpace=wrap;html=1;aspect=fixed;dashed=1;dashPattern=1 2;fillColor=#60a917;strokeColor=#2D7600;fontColor=#ffffff;" vertex="1" parent="1">
          <mxGeometry x="180" y="780" width="10" height="10" as="geometry" />
        </mxCell>
        <mxCell id="N3uVrDPWJQUxGeQVg-p2-399" value="" style="whiteSpace=wrap;html=1;aspect=fixed;dashed=1;dashPattern=1 2;fillColor=#dae8fc;strokeColor=#6c8ebf;" vertex="1" parent="1">
          <mxGeometry x="190" y="780" width="10" height="10" as="geometry" />
        </mxCell>
        <mxCell id="N3uVrDPWJQUxGeQVg-p2-400" value="" style="whiteSpace=wrap;html=1;aspect=fixed;dashed=1;dashPattern=1 2;fillColor=#dae8fc;strokeColor=#6c8ebf;" vertex="1" parent="1">
          <mxGeometry x="80" y="790" width="10" height="10" as="geometry" />
        </mxCell>
        <mxCell id="N3uVrDPWJQUxGeQVg-p2-401" value="" style="whiteSpace=wrap;html=1;aspect=fixed;dashed=1;dashPattern=1 2;fillColor=#dae8fc;strokeColor=#6c8ebf;" vertex="1" parent="1">
          <mxGeometry x="90" y="790" width="10" height="10" as="geometry" />
        </mxCell>
        <mxCell id="N3uVrDPWJQUxGeQVg-p2-402" value="" style="whiteSpace=wrap;html=1;aspect=fixed;dashed=1;dashPattern=1 2;fillColor=#e51400;strokeColor=#B20000;fontColor=#ffffff;" vertex="1" parent="1">
          <mxGeometry x="100" y="790" width="10" height="10" as="geometry" />
        </mxCell>
        <mxCell id="N3uVrDPWJQUxGeQVg-p2-403" value="" style="whiteSpace=wrap;html=1;aspect=fixed;dashed=1;dashPattern=1 2;fillColor=#e51400;strokeColor=#B20000;fontColor=#ffffff;" vertex="1" parent="1">
          <mxGeometry x="110" y="790" width="10" height="10" as="geometry" />
        </mxCell>
        <mxCell id="N3uVrDPWJQUxGeQVg-p2-404" value="" style="whiteSpace=wrap;html=1;aspect=fixed;dashed=1;dashPattern=1 2;fillColor=#e51400;strokeColor=#B20000;fontColor=#ffffff;" vertex="1" parent="1">
          <mxGeometry x="120" y="790" width="10" height="10" as="geometry" />
        </mxCell>
        <mxCell id="N3uVrDPWJQUxGeQVg-p2-405" value="" style="whiteSpace=wrap;html=1;aspect=fixed;dashed=1;dashPattern=1 2;fillColor=#e51400;strokeColor=#B20000;fontColor=#ffffff;" vertex="1" parent="1">
          <mxGeometry x="130" y="790" width="10" height="10" as="geometry" />
        </mxCell>
        <mxCell id="N3uVrDPWJQUxGeQVg-p2-406" value="" style="whiteSpace=wrap;html=1;aspect=fixed;dashed=1;dashPattern=1 2;fillColor=#e51400;strokeColor=#B20000;fontColor=#ffffff;" vertex="1" parent="1">
          <mxGeometry x="140" y="790" width="10" height="10" as="geometry" />
        </mxCell>
        <mxCell id="N3uVrDPWJQUxGeQVg-p2-407" value="" style="whiteSpace=wrap;html=1;aspect=fixed;dashed=1;dashPattern=1 2;fillColor=#60a917;strokeColor=#2D7600;fontColor=#ffffff;" vertex="1" parent="1">
          <mxGeometry x="150" y="790" width="10" height="10" as="geometry" />
        </mxCell>
        <mxCell id="N3uVrDPWJQUxGeQVg-p2-408" value="" style="whiteSpace=wrap;html=1;aspect=fixed;dashed=1;dashPattern=1 2;fillColor=#60a917;strokeColor=#2D7600;fontColor=#ffffff;" vertex="1" parent="1">
          <mxGeometry x="160" y="790" width="10" height="10" as="geometry" />
        </mxCell>
        <mxCell id="N3uVrDPWJQUxGeQVg-p2-409" value="" style="whiteSpace=wrap;html=1;aspect=fixed;dashed=1;dashPattern=1 2;fillColor=#60a917;strokeColor=#2D7600;fontColor=#ffffff;" vertex="1" parent="1">
          <mxGeometry x="170" y="790" width="10" height="10" as="geometry" />
        </mxCell>
        <mxCell id="N3uVrDPWJQUxGeQVg-p2-410" value="" style="whiteSpace=wrap;html=1;aspect=fixed;dashed=1;dashPattern=1 2;fillColor=#60a917;strokeColor=#2D7600;fontColor=#ffffff;" vertex="1" parent="1">
          <mxGeometry x="180" y="790" width="10" height="10" as="geometry" />
        </mxCell>
        <mxCell id="N3uVrDPWJQUxGeQVg-p2-411" value="" style="whiteSpace=wrap;html=1;aspect=fixed;dashed=1;dashPattern=1 2;fillColor=#60a917;strokeColor=#2D7600;fontColor=#ffffff;" vertex="1" parent="1">
          <mxGeometry x="190" y="790" width="10" height="10" as="geometry" />
        </mxCell>
        <mxCell id="N3uVrDPWJQUxGeQVg-p2-412" value="" style="whiteSpace=wrap;html=1;aspect=fixed;dashed=1;dashPattern=1 2;fillColor=#dae8fc;strokeColor=#6c8ebf;" vertex="1" parent="1">
          <mxGeometry x="80" y="800" width="10" height="10" as="geometry" />
        </mxCell>
        <mxCell id="N3uVrDPWJQUxGeQVg-p2-413" value="" style="whiteSpace=wrap;html=1;aspect=fixed;dashed=1;dashPattern=1 2;fillColor=#dae8fc;strokeColor=#6c8ebf;" vertex="1" parent="1">
          <mxGeometry x="90" y="800" width="10" height="10" as="geometry" />
        </mxCell>
        <mxCell id="N3uVrDPWJQUxGeQVg-p2-414" value="" style="whiteSpace=wrap;html=1;aspect=fixed;dashed=1;dashPattern=1 2;fillColor=#dae8fc;strokeColor=#6c8ebf;" vertex="1" parent="1">
          <mxGeometry x="100" y="800" width="10" height="10" as="geometry" />
        </mxCell>
        <mxCell id="N3uVrDPWJQUxGeQVg-p2-415" value="" style="whiteSpace=wrap;html=1;aspect=fixed;dashed=1;dashPattern=1 2;fillColor=#e51400;strokeColor=#B20000;fontColor=#ffffff;" vertex="1" parent="1">
          <mxGeometry x="110" y="800" width="10" height="10" as="geometry" />
        </mxCell>
        <mxCell id="N3uVrDPWJQUxGeQVg-p2-416" value="" style="whiteSpace=wrap;html=1;aspect=fixed;dashed=1;dashPattern=1 2;fillColor=#e51400;strokeColor=#B20000;fontColor=#ffffff;" vertex="1" parent="1">
          <mxGeometry x="120" y="800" width="10" height="10" as="geometry" />
        </mxCell>
        <mxCell id="N3uVrDPWJQUxGeQVg-p2-417" value="" style="whiteSpace=wrap;html=1;aspect=fixed;dashed=1;dashPattern=1 2;fillColor=#e51400;strokeColor=#B20000;fontColor=#ffffff;" vertex="1" parent="1">
          <mxGeometry x="130" y="800" width="10" height="10" as="geometry" />
        </mxCell>
        <mxCell id="N3uVrDPWJQUxGeQVg-p2-418" value="" style="whiteSpace=wrap;html=1;aspect=fixed;dashed=1;dashPattern=1 2;fillColor=#dae8fc;strokeColor=#6c8ebf;" vertex="1" parent="1">
          <mxGeometry x="140" y="800" width="10" height="10" as="geometry" />
        </mxCell>
        <mxCell id="N3uVrDPWJQUxGeQVg-p2-419" value="" style="whiteSpace=wrap;html=1;aspect=fixed;dashed=1;dashPattern=1 2;fillColor=#60a917;strokeColor=#2D7600;fontColor=#ffffff;" vertex="1" parent="1">
          <mxGeometry x="150" y="800" width="10" height="10" as="geometry" />
        </mxCell>
        <mxCell id="N3uVrDPWJQUxGeQVg-p2-420" value="" style="whiteSpace=wrap;html=1;aspect=fixed;dashed=1;dashPattern=1 2;fillColor=#60a917;strokeColor=#2D7600;fontColor=#ffffff;" vertex="1" parent="1">
          <mxGeometry x="160" y="800" width="10" height="10" as="geometry" />
        </mxCell>
        <mxCell id="N3uVrDPWJQUxGeQVg-p2-421" value="" style="whiteSpace=wrap;html=1;aspect=fixed;dashed=1;dashPattern=1 2;fillColor=#60a917;strokeColor=#2D7600;fontColor=#ffffff;" vertex="1" parent="1">
          <mxGeometry x="170" y="800" width="10" height="10" as="geometry" />
        </mxCell>
        <mxCell id="N3uVrDPWJQUxGeQVg-p2-422" value="" style="whiteSpace=wrap;html=1;aspect=fixed;dashed=1;dashPattern=1 2;fillColor=#60a917;strokeColor=#2D7600;fontColor=#ffffff;" vertex="1" parent="1">
          <mxGeometry x="180" y="800" width="10" height="10" as="geometry" />
        </mxCell>
        <mxCell id="N3uVrDPWJQUxGeQVg-p2-423" value="" style="whiteSpace=wrap;html=1;aspect=fixed;dashed=1;dashPattern=1 2;fillColor=#60a917;strokeColor=#2D7600;fontColor=#ffffff;" vertex="1" parent="1">
          <mxGeometry x="190" y="800" width="10" height="10" as="geometry" />
        </mxCell>
        <mxCell id="N3uVrDPWJQUxGeQVg-p2-424" value="" style="whiteSpace=wrap;html=1;aspect=fixed;dashed=1;dashPattern=1 2;fillColor=#dae8fc;strokeColor=#6c8ebf;" vertex="1" parent="1">
          <mxGeometry x="80" y="810" width="10" height="10" as="geometry" />
        </mxCell>
        <mxCell id="N3uVrDPWJQUxGeQVg-p2-425" value="" style="whiteSpace=wrap;html=1;aspect=fixed;dashed=1;dashPattern=1 2;fillColor=#dae8fc;strokeColor=#6c8ebf;" vertex="1" parent="1">
          <mxGeometry x="90" y="810" width="10" height="10" as="geometry" />
        </mxCell>
        <mxCell id="N3uVrDPWJQUxGeQVg-p2-426" value="" style="whiteSpace=wrap;html=1;aspect=fixed;dashed=1;dashPattern=1 2;fillColor=#dae8fc;strokeColor=#6c8ebf;" vertex="1" parent="1">
          <mxGeometry x="100" y="810" width="10" height="10" as="geometry" />
        </mxCell>
        <mxCell id="N3uVrDPWJQUxGeQVg-p2-427" value="" style="whiteSpace=wrap;html=1;aspect=fixed;dashed=1;dashPattern=1 2;fillColor=#dae8fc;strokeColor=#6c8ebf;" vertex="1" parent="1">
          <mxGeometry x="110" y="810" width="10" height="10" as="geometry" />
        </mxCell>
        <mxCell id="N3uVrDPWJQUxGeQVg-p2-428" value="" style="whiteSpace=wrap;html=1;aspect=fixed;dashed=1;dashPattern=1 2;fillColor=#e51400;strokeColor=#B20000;fontColor=#ffffff;" vertex="1" parent="1">
          <mxGeometry x="120" y="810" width="10" height="10" as="geometry" />
        </mxCell>
        <mxCell id="N3uVrDPWJQUxGeQVg-p2-429" value="" style="whiteSpace=wrap;html=1;aspect=fixed;dashed=1;dashPattern=1 2;fillColor=#dae8fc;strokeColor=#6c8ebf;" vertex="1" parent="1">
          <mxGeometry x="130" y="810" width="10" height="10" as="geometry" />
        </mxCell>
        <mxCell id="N3uVrDPWJQUxGeQVg-p2-430" value="" style="whiteSpace=wrap;html=1;aspect=fixed;dashed=1;dashPattern=1 2;fillColor=#dae8fc;strokeColor=#6c8ebf;" vertex="1" parent="1">
          <mxGeometry x="140" y="810" width="10" height="10" as="geometry" />
        </mxCell>
        <mxCell id="N3uVrDPWJQUxGeQVg-p2-431" value="" style="whiteSpace=wrap;html=1;aspect=fixed;dashed=1;dashPattern=1 2;fillColor=#dae8fc;strokeColor=#6c8ebf;" vertex="1" parent="1">
          <mxGeometry x="150" y="810" width="10" height="10" as="geometry" />
        </mxCell>
        <mxCell id="N3uVrDPWJQUxGeQVg-p2-432" value="" style="whiteSpace=wrap;html=1;aspect=fixed;dashed=1;dashPattern=1 2;fillColor=#60a917;strokeColor=#2D7600;fontColor=#ffffff;" vertex="1" parent="1">
          <mxGeometry x="160" y="810" width="10" height="10" as="geometry" />
        </mxCell>
        <mxCell id="N3uVrDPWJQUxGeQVg-p2-433" value="" style="whiteSpace=wrap;html=1;aspect=fixed;dashed=1;dashPattern=1 2;fillColor=#6d8764;strokeColor=#3A5431;fontColor=#ffffff;" vertex="1" parent="1">
          <mxGeometry x="170" y="810" width="10" height="10" as="geometry" />
        </mxCell>
        <mxCell id="N3uVrDPWJQUxGeQVg-p2-434" value="" style="whiteSpace=wrap;html=1;aspect=fixed;dashed=1;dashPattern=1 2;fillColor=#60a917;strokeColor=#2D7600;fontColor=#ffffff;" vertex="1" parent="1">
          <mxGeometry x="180" y="810" width="10" height="10" as="geometry" />
        </mxCell>
        <mxCell id="N3uVrDPWJQUxGeQVg-p2-435" value="" style="whiteSpace=wrap;html=1;aspect=fixed;dashed=1;dashPattern=1 2;fillColor=#dae8fc;strokeColor=#6c8ebf;" vertex="1" parent="1">
          <mxGeometry x="190" y="810" width="10" height="10" as="geometry" />
        </mxCell>
        <mxCell id="N3uVrDPWJQUxGeQVg-p2-436" value="" style="whiteSpace=wrap;html=1;aspect=fixed;dashed=1;dashPattern=1 2;fillColor=#ffe6cc;strokeColor=#d79b00;" vertex="1" parent="1">
          <mxGeometry x="80" y="820" width="10" height="10" as="geometry" />
        </mxCell>
        <mxCell id="N3uVrDPWJQUxGeQVg-p2-437" value="" style="whiteSpace=wrap;html=1;aspect=fixed;dashed=1;dashPattern=1 2;fillColor=#ffe6cc;strokeColor=#d79b00;" vertex="1" parent="1">
          <mxGeometry x="90" y="820" width="10" height="10" as="geometry" />
        </mxCell>
        <mxCell id="N3uVrDPWJQUxGeQVg-p2-438" value="" style="whiteSpace=wrap;html=1;aspect=fixed;dashed=1;dashPattern=1 2;fillColor=#ffe6cc;strokeColor=#d79b00;" vertex="1" parent="1">
          <mxGeometry x="100" y="820" width="10" height="10" as="geometry" />
        </mxCell>
        <mxCell id="N3uVrDPWJQUxGeQVg-p2-439" value="" style="whiteSpace=wrap;html=1;aspect=fixed;dashed=1;dashPattern=1 2;fillColor=#ffe6cc;strokeColor=#d79b00;" vertex="1" parent="1">
          <mxGeometry x="110" y="820" width="10" height="10" as="geometry" />
        </mxCell>
        <mxCell id="N3uVrDPWJQUxGeQVg-p2-440" value="" style="whiteSpace=wrap;html=1;aspect=fixed;dashed=1;dashPattern=1 2;fillColor=#ffe6cc;strokeColor=#d79b00;" vertex="1" parent="1">
          <mxGeometry x="120" y="820" width="10" height="10" as="geometry" />
        </mxCell>
        <mxCell id="N3uVrDPWJQUxGeQVg-p2-441" value="" style="whiteSpace=wrap;html=1;aspect=fixed;dashed=1;dashPattern=1 2;fillColor=#ffe6cc;strokeColor=#d79b00;" vertex="1" parent="1">
          <mxGeometry x="130" y="820" width="10" height="10" as="geometry" />
        </mxCell>
        <mxCell id="N3uVrDPWJQUxGeQVg-p2-442" value="" style="whiteSpace=wrap;html=1;aspect=fixed;dashed=1;dashPattern=1 2;fillColor=#ffe6cc;strokeColor=#d79b00;" vertex="1" parent="1">
          <mxGeometry x="140" y="820" width="10" height="10" as="geometry" />
        </mxCell>
        <mxCell id="N3uVrDPWJQUxGeQVg-p2-443" value="" style="whiteSpace=wrap;html=1;aspect=fixed;dashed=1;dashPattern=1 2;fillColor=#ffe6cc;strokeColor=#d79b00;" vertex="1" parent="1">
          <mxGeometry x="150" y="820" width="10" height="10" as="geometry" />
        </mxCell>
        <mxCell id="N3uVrDPWJQUxGeQVg-p2-444" value="" style="whiteSpace=wrap;html=1;aspect=fixed;dashed=1;dashPattern=1 2;fillColor=#ffe6cc;strokeColor=#d79b00;" vertex="1" parent="1">
          <mxGeometry x="160" y="820" width="10" height="10" as="geometry" />
        </mxCell>
        <mxCell id="N3uVrDPWJQUxGeQVg-p2-445" value="" style="whiteSpace=wrap;html=1;aspect=fixed;dashed=1;dashPattern=1 2;fillColor=#6d8764;strokeColor=#3A5431;fontColor=#ffffff;" vertex="1" parent="1">
          <mxGeometry x="170" y="820" width="10" height="10" as="geometry" />
        </mxCell>
        <mxCell id="N3uVrDPWJQUxGeQVg-p2-446" value="" style="whiteSpace=wrap;html=1;aspect=fixed;dashed=1;dashPattern=1 2;fillColor=#ffe6cc;strokeColor=#d79b00;" vertex="1" parent="1">
          <mxGeometry x="180" y="820" width="10" height="10" as="geometry" />
        </mxCell>
        <mxCell id="N3uVrDPWJQUxGeQVg-p2-447" value="" style="whiteSpace=wrap;html=1;aspect=fixed;dashed=1;dashPattern=1 2;fillColor=#ffe6cc;strokeColor=#d79b00;" vertex="1" parent="1">
          <mxGeometry x="190" y="820" width="10" height="10" as="geometry" />
        </mxCell>
        <mxCell id="N3uVrDPWJQUxGeQVg-p2-448" value="" style="whiteSpace=wrap;html=1;aspect=fixed;dashed=1;dashPattern=1 2;fillColor=#ffe6cc;strokeColor=#d79b00;" vertex="1" parent="1">
          <mxGeometry x="80" y="830" width="10" height="10" as="geometry" />
        </mxCell>
        <mxCell id="N3uVrDPWJQUxGeQVg-p2-449" value="" style="whiteSpace=wrap;html=1;aspect=fixed;dashed=1;dashPattern=1 2;fillColor=#ffe6cc;strokeColor=#d79b00;" vertex="1" parent="1">
          <mxGeometry x="90" y="830" width="10" height="10" as="geometry" />
        </mxCell>
        <mxCell id="N3uVrDPWJQUxGeQVg-p2-450" value="" style="whiteSpace=wrap;html=1;aspect=fixed;dashed=1;dashPattern=1 2;fillColor=#ffe6cc;strokeColor=#d79b00;" vertex="1" parent="1">
          <mxGeometry x="100" y="830" width="10" height="10" as="geometry" />
        </mxCell>
        <mxCell id="N3uVrDPWJQUxGeQVg-p2-451" value="" style="whiteSpace=wrap;html=1;aspect=fixed;dashed=1;dashPattern=1 2;fillColor=#ffe6cc;strokeColor=#d79b00;" vertex="1" parent="1">
          <mxGeometry x="110" y="830" width="10" height="10" as="geometry" />
        </mxCell>
        <mxCell id="N3uVrDPWJQUxGeQVg-p2-452" value="" style="whiteSpace=wrap;html=1;aspect=fixed;dashed=1;dashPattern=1 2;fillColor=#ffe6cc;strokeColor=#d79b00;" vertex="1" parent="1">
          <mxGeometry x="120" y="830" width="10" height="10" as="geometry" />
        </mxCell>
        <mxCell id="N3uVrDPWJQUxGeQVg-p2-453" value="" style="whiteSpace=wrap;html=1;aspect=fixed;dashed=1;dashPattern=1 2;fillColor=#ffe6cc;strokeColor=#d79b00;" vertex="1" parent="1">
          <mxGeometry x="130" y="830" width="10" height="10" as="geometry" />
        </mxCell>
        <mxCell id="N3uVrDPWJQUxGeQVg-p2-454" value="" style="whiteSpace=wrap;html=1;aspect=fixed;dashed=1;dashPattern=1 2;fillColor=#ffe6cc;strokeColor=#d79b00;" vertex="1" parent="1">
          <mxGeometry x="140" y="830" width="10" height="10" as="geometry" />
        </mxCell>
        <mxCell id="N3uVrDPWJQUxGeQVg-p2-455" value="" style="whiteSpace=wrap;html=1;aspect=fixed;dashed=1;dashPattern=1 2;fillColor=#ffe6cc;strokeColor=#d79b00;" vertex="1" parent="1">
          <mxGeometry x="150" y="830" width="10" height="10" as="geometry" />
        </mxCell>
        <mxCell id="N3uVrDPWJQUxGeQVg-p2-456" value="" style="whiteSpace=wrap;html=1;aspect=fixed;dashed=1;dashPattern=1 2;fillColor=#ffe6cc;strokeColor=#d79b00;" vertex="1" parent="1">
          <mxGeometry x="160" y="830" width="10" height="10" as="geometry" />
        </mxCell>
        <mxCell id="N3uVrDPWJQUxGeQVg-p2-457" value="" style="whiteSpace=wrap;html=1;aspect=fixed;dashed=1;dashPattern=1 2;fillColor=#6d8764;strokeColor=#3A5431;fontColor=#ffffff;" vertex="1" parent="1">
          <mxGeometry x="170" y="830" width="10" height="10" as="geometry" />
        </mxCell>
        <mxCell id="N3uVrDPWJQUxGeQVg-p2-458" value="" style="whiteSpace=wrap;html=1;aspect=fixed;dashed=1;dashPattern=1 2;fillColor=#ffe6cc;strokeColor=#d79b00;" vertex="1" parent="1">
          <mxGeometry x="180" y="830" width="10" height="10" as="geometry" />
        </mxCell>
        <mxCell id="N3uVrDPWJQUxGeQVg-p2-459" value="" style="whiteSpace=wrap;html=1;aspect=fixed;dashed=1;dashPattern=1 2;fillColor=#ffe6cc;strokeColor=#d79b00;" vertex="1" parent="1">
          <mxGeometry x="190" y="830" width="10" height="10" as="geometry" />
        </mxCell>
        <mxCell id="N3uVrDPWJQUxGeQVg-p2-595" value="" style="rounded=0;whiteSpace=wrap;html=1;fillColor=none;" vertex="1" parent="1">
          <mxGeometry x="80" y="760" width="120" height="80" as="geometry" />
        </mxCell>
        <mxCell id="N3uVrDPWJQUxGeQVg-p2-596" value="" style="shape=flexArrow;endArrow=classic;html=1;rounded=0;" edge="1" parent="1">
          <mxGeometry width="50" height="50" relative="1" as="geometry">
            <mxPoint x="210" y="794.76" as="sourcePoint" />
            <mxPoint x="270" y="794.76" as="targetPoint" />
          </mxGeometry>
        </mxCell>
      </root>
    </mxGraphModel>
  </diagram>
</mxfile>
